Topmarks-Light.ufo
<glyph name="exclam" format="1">
  <advance width="732.2"/>
  <unicode hex="0021"/>
  <outline>
    <contour>
      <point x="365.6" y="-7.2" type="curve" smooth="yes"/>
      <point x="413.2" y="-7.2"/>
      <point x="466.2" y="27.2"/>
      <point x="466.2" y="91.0" type="curve" smooth="yes"/>
      <point x="466.2" y="142.6"/>
      <point x="433.4" y="190.2"/>
      <point x="366.6" y="190.2" type="curve" smooth="yes"/>
      <point x="319.0" y="190.2"/>
      <point x="266.0" y="155.6"/>
      <point x="266.0" y="91.6" type="curve" smooth="yes"/>
      <point x="266.0" y="40.2"/>
      <point x="299.0" y="-7.2"/>
    </contour>
    <contour>
      <point x="323.4" y="344.0" type="line"/>
      <point x="400.8" y="344.0" type="line"/>
      <point x="442.0" y="1406.4" type="line"/>
      <point x="280.4" y="1406.4" type="line"/>
    </contour>
  </outline>
</glyph>
<glyph name="numbersign" format="1">
  <advance width="1060.2"/>
  <unicode hex="0023"/>
  <outline>
    <contour>
      <point x="211.0" y="50.8" type="line"/>
      <point x="351.8" y="50.8" type="line"/>
      <point x="431.0" y="461.0" type="line"/>
      <point x="683.0" y="461.0" type="line"/>
      <point x="605.6" y="50.8" type="line"/>
      <point x="745.6" y="50.8" type="line"/>
      <point x="825.8" y="461.0" type="line"/>
      <point x="1076.8" y="461.0" type="line"/>
      <point x="1090.2" y="582.8" type="line"/>
      <point x="847.0" y="582.8" type="line"/>
      <point x="896.2" y="848.0" type="line"/>
      <point x="1137.6" y="848.0" type="line"/>
      <point x="1151.0" y="967.8" type="line"/>
      <point x="918.4" y="967.8" type="line"/>
      <point x="993.6" y="1363.4" type="line"/>
      <point x="852.8" y="1363.4" type="line"/>
      <point x="779.6" y="967.8" type="line"/>
      <point x="527.6" y="967.8" type="line"/>
      <point x="601.8" y="1363.4" type="line"/>
      <point x="461.0" y="1363.4" type="line"/>
      <point x="384.8" y="967.8" type="line"/>
      <point x="124.0" y="967.8" type="line"/>
      <point x="111.6" y="848.0" type="line"/>
      <point x="363.4" y="848.0" type="line"/>
      <point x="347.0" y="758.2"/>
      <point x="330.6" y="673.4"/>
      <point x="315.2" y="582.8" type="curve"/>
      <point x="59.4" y="582.8" type="line"/>
      <point x="48.8" y="461.0" type="line"/>
      <point x="292.0" y="461.0" type="line"/>
    </contour>
    <contour>
      <point x="452.2" y="582.8" type="line"/>
      <point x="504.2" y="848.0" type="line"/>
      <point x="756.2" y="848.0" type="line"/>
      <point x="707.0" y="582.8" type="line"/>
    </contour>
  </outline>
</glyph>
<glyph name="dollar" format="1">
  <advance width="1079.8"/>
  <unicode hex="0024"/>
  <outline>
    <contour>
      <point x="520.4" y="-145.8" type="line"/>
      <point x="639.0" y="-145.8" type="line"/>
      <point x="636.2" y="9.6" type="line"/>
      <point x="691.2" y="14.2"/>
      <point x="744.4" y="25.0"/>
      <point x="793.6" y="43.4" type="curve" smooth="yes"/>
      <point x="926.8" y="91.6"/>
      <point x="1045.6" y="191.2"/>
      <point x="1045.6" y="368.8" type="curve" smooth="yes"/>
      <point x="1045.6" y="480.6"/>
      <point x="1005.0" y="548.2"/>
      <point x="941.2" y="603.2" type="curve" smooth="yes"/>
      <point x="860.2" y="673.6"/>
      <point x="755.0" y="717.0"/>
      <point x="636.2" y="763.4" type="curve"/>
      <point x="638.2" y="1274.0" type="line"/>
      <point x="757.0" y="1270.0"/>
      <point x="850.6" y="1237.2"/>
      <point x="918.0" y="1176.4" type="curve"/>
      <point x="965.4" y="1300.0" type="line"/>
      <point x="888.2" y="1365.6"/>
      <point x="773.4" y="1406.2"/>
      <point x="637.2" y="1409.2" type="curve"/>
      <point x="634.4" y="1540.4" type="line"/>
      <point x="514.6" y="1540.4" type="line"/>
      <point x="518.4" y="1407.0" type="line"/>
      <point x="409.4" y="1398.2"/>
      <point x="316.8" y="1349.2"/>
      <point x="253.2" y="1289.4" type="curve" smooth="yes"/>
      <point x="191.4" y="1230.4"/>
      <point x="135.2" y="1143.6"/>
      <point x="135.2" y="1030.8" type="curve" smooth="yes"/>
      <point x="135.2" y="976.6"/>
      <point x="145.8" y="931.4"/>
      <point x="166.2" y="892.6" type="curve" smooth="yes"/>
      <point x="234.6" y="765.2"/>
      <point x="379.4" y="707.2"/>
      <point x="518.4" y="645.6" type="curve"/>
      <point x="515.8" y="142.8" type="line"/>
      <point x="409.6" y="147.6"/>
      <point x="316.6" y="187.0"/>
      <point x="245.4" y="235.4" type="curve"/>
      <point x="198.0" y="106.2" type="line"/>
      <point x="284.0" y="44.4"/>
      <point x="382.4" y="7.8"/>
      <point x="516.6" y="4.8" type="curve"/>
    </contour>
    <contour>
      <point x="634.4" y="146.8" type="curve"/>
      <point x="638.2" y="604.0" type="line"/>
      <point x="741.4" y="559.6"/>
      <point x="872.6" y="509.6"/>
      <point x="872.6" y="365.8" type="curve" smooth="yes"/>
      <point x="872.6" y="333.8"/>
      <point x="866.0" y="305.8"/>
      <point x="853.4" y="280.8" type="curve" smooth="yes"/>
      <point x="814.6" y="205.4"/>
      <point x="734.8" y="160.2"/>
    </contour>
    <contour>
      <point x="516.6" y="809.8" type="line"/>
      <point x="413.4" y="848.4"/>
      <point x="317.6" y="901.4"/>
      <point x="317.6" y="1042.2" type="curve" smooth="yes"/>
      <point x="317.6" y="1171.6"/>
      <point x="402.6" y="1253.8"/>
      <point x="518.4" y="1268.2" type="curve"/>
    </contour>
  </outline>
</glyph>
<glyph name="percent" format="1">
  <advance width="1683.0"/>
  <unicode hex="0025"/>
  <outline>
    <contour>
      <point x="482.0" y="665.4" type="curve" smooth="yes"/>
      <point x="535.2" y="665.4"/>
      <point x="582.6" y="674.8"/>
      <point x="625.0" y="694.2" type="curve" smooth="yes"/>
      <point x="743.8" y="748.2"/>
      <point x="826.8" y="864.0"/>
      <point x="826.8" y="1034.0" type="curve" smooth="yes"/>
      <point x="826.8" y="1252.2"/>
      <point x="707.0" y="1399.8"/>
      <point x="488.0" y="1399.8" type="curve" smooth="yes"/>
      <point x="434.8" y="1399.8"/>
      <point x="386.6" y="1391.2"/>
      <point x="344.2" y="1371.8" type="curve" smooth="yes"/>
      <point x="224.4" y="1318.8"/>
      <point x="142.4" y="1200.0"/>
      <point x="142.4" y="1030.2" type="curve" smooth="yes"/>
      <point x="142.4" y="979.0"/>
      <point x="150.2" y="930.6"/>
      <point x="165.6" y="886.2" type="curve" smooth="yes"/>
      <point x="209.2" y="758.8"/>
      <point x="312.0" y="665.4"/>
    </contour>
    <contour>
      <point x="1378.8" y="-23.0" type="curve" smooth="yes"/>
      <point x="1432.0" y="-23.0"/>
      <point x="1479.2" y="-13.2"/>
      <point x="1521.6" y="6.0" type="curve" smooth="yes"/>
      <point x="1640.4" y="60.2"/>
      <point x="1723.2" y="176.8"/>
      <point x="1723.2" y="346.8" type="curve" smooth="yes"/>
      <point x="1723.2" y="565.0"/>
      <point x="1603.6" y="712.6"/>
      <point x="1384.6" y="712.6" type="curve" smooth="yes"/>
      <point x="1331.4" y="712.6"/>
      <point x="1283.2" y="702.8"/>
      <point x="1240.8" y="683.6" type="curve" smooth="yes"/>
      <point x="1121.0" y="629.4"/>
      <point x="1039.0" y="513.0"/>
      <point x="1039.0" y="342.0" type="curve" smooth="yes"/>
      <point x="1039.0" y="291.0"/>
      <point x="1046.8" y="242.6"/>
      <point x="1062.2" y="198.0" type="curve" smooth="yes"/>
      <point x="1106.6" y="70.8"/>
      <point x="1208.8" y="-23.0"/>
    </contour>
    <contour>
      <point x="486.0" y="774.4" type="curve" smooth="yes"/>
      <point x="343.2" y="774.4"/>
      <point x="281.4" y="888.2"/>
      <point x="281.4" y="1031.0" type="curve" smooth="yes"/>
      <point x="281.4" y="1173.0"/>
      <point x="344.2" y="1291.8"/>
      <point x="487.0" y="1291.8" type="curve" smooth="yes"/>
      <point x="520.8" y="1291.8"/>
      <point x="551.6" y="1285.0"/>
      <point x="576.6" y="1271.4" type="curve" smooth="yes"/>
      <point x="651.2" y="1231.8"/>
      <point x="688.6" y="1147.8"/>
      <point x="688.6" y="1035.0" type="curve" smooth="yes"/>
      <point x="688.6" y="894.0"/>
      <point x="627.0" y="774.4"/>
    </contour>
    <contour>
      <point x="1381.8" y="86.2" type="curve" smooth="yes"/>
      <point x="1347.0" y="86.2"/>
      <point x="1316.2" y="93.0"/>
      <point x="1291.0" y="106.4" type="curve" smooth="yes"/>
      <point x="1216.8" y="146.0"/>
      <point x="1178.0" y="229.0"/>
      <point x="1178.0" y="340.8" type="curve" smooth="yes"/>
      <point x="1178.0" y="482.8"/>
      <point x="1240.8" y="603.4"/>
      <point x="1383.6" y="603.4" type="curve" smooth="yes"/>
      <point x="1524.6" y="603.4"/>
      <point x="1584.4" y="489.6"/>
      <point x="1584.4" y="347.8" type="curve" smooth="yes"/>
      <point x="1584.4" y="206.8"/>
      <point x="1523.6" y="86.2"/>
    </contour>
    <contour>
      <point x="405.0" y="-1.6" type="line"/>
      <point x="553.6" y="-1.6" type="line"/>
      <point x="1427.2" y="1389.2" type="line"/>
      <point x="1277.4" y="1389.2" type="line"/>
    </contour>
  </outline>
</glyph>
<glyph name="ampersand" format="1">
  <advance width="1396.4"/>
  <unicode hex="0026"/>
  <outline>
    <contour>
      <point x="624.4" y="-23.0" type="curve" smooth="yes"/>
      <point x="849.4" y="-23.0"/>
      <point x="997.0" y="70.8"/>
      <point x="1111.8" y="182.6" type="curve"/>
      <point x="1198.8" y="99.6"/>
      <point x="1278.0" y="12.8"/>
      <point x="1420.8" y="-8.4" type="curve"/>
      <point x="1548.0" y="86.2" type="line"/>
      <point x="1507.4" y="94.8"/>
      <point x="1471.8" y="103.4"/>
      <point x="1442.0" y="113.2" type="curve" smooth="yes"/>
      <point x="1336.6" y="148.0"/>
      <point x="1274.0" y="203.8"/>
      <point x="1202.6" y="277.2" type="curve"/>
      <point x="1309.6" y="415.4"/>
      <point x="1389.8" y="606.4"/>
      <point x="1398.6" y="836.0" type="curve"/>
      <point x="1237.4" y="856.4" type="line"/>
      <point x="1237.4" y="815.8"/>
      <point x="1233.4" y="775.2"/>
      <point x="1226.8" y="732.8" type="curve" smooth="yes"/>
      <point x="1204.6" y="599.6"/>
      <point x="1155.4" y="478.8"/>
      <point x="1090.6" y="387.2" type="curve"/>
      <point x="690.0" y="796.6" type="line"/>
      <point x="765.2" y="837.2"/>
      <point x="840.6" y="886.2"/>
      <point x="895.6" y="946.0" type="curve" smooth="yes"/>
      <point x="941.8" y="996.4"/>
      <point x="986.4" y="1061.0"/>
      <point x="986.4" y="1149.8" type="curve" smooth="yes"/>
      <point x="986.4" y="1197.2"/>
      <point x="976.8" y="1236.8"/>
      <point x="955.6" y="1271.4" type="curve" smooth="yes"/>
      <point x="896.6" y="1368.0"/>
      <point x="777.8" y="1424.8"/>
      <point x="624.4" y="1424.8" type="curve" smooth="yes"/>
      <point x="432.4" y="1424.8"/>
      <point x="275.0" y="1336.0"/>
      <point x="275.0" y="1143.8" type="curve" smooth="yes"/>
      <point x="275.0" y="1110.0"/>
      <point x="279.8" y="1079.4"/>
      <point x="290.4" y="1051.4" type="curve" smooth="yes"/>
      <point x="325.2" y="956.8"/>
      <point x="396.6" y="892.0"/>
      <point x="463.2" y="825.4" type="curve"/>
      <point x="372.4" y="777.2"/>
      <point x="280.0" y="721.2"/>
      <point x="211.4" y="651.8" type="curve" smooth="yes"/>
      <point x="149.8" y="589.2"/>
      <point x="97.4" y="507.8"/>
      <point x="97.4" y="391.2" type="curve" smooth="yes"/>
      <point x="97.4" y="325.4"/>
      <point x="110.2" y="266.6"/>
      <point x="137.2" y="215.4" type="curve" smooth="yes"/>
      <point x="217.2" y="63.0"/>
      <point x="392.8" y="-23.0"/>
    </contour>
    <contour>
      <point x="621.6" y="115.2" type="curve" smooth="yes"/>
      <point x="570.4" y="115.2"/>
      <point x="523.0" y="121.8"/>
      <point x="480.6" y="136.4" type="curve" smooth="yes"/>
      <point x="370.6" y="173.0"/>
      <point x="271.2" y="253.2"/>
      <point x="271.2" y="395.0" type="curve" smooth="yes"/>
      <point x="271.2" y="436.4"/>
      <point x="278.8" y="474.2"/>
      <point x="295.4" y="507.0" type="curve" smooth="yes"/>
      <point x="347.4" y="613.2"/>
      <point x="454.6" y="673.0"/>
      <point x="559.8" y="727.0" type="curve"/>
      <point x="780.6" y="507.8" type="line" smooth="yes"/>
      <point x="847.2" y="441.2"/>
      <point x="919.8" y="365.0"/>
      <point x="984.4" y="303.4" type="curve" smooth="yes"/>
      <point x="998.2" y="290.8"/>
      <point x="1005.6" y="284.0"/>
      <point x="1007.6" y="284.0" type="curve"/>
      <point x="914.0" y="193.4"/>
      <point x="804.8" y="115.2"/>
    </contour>
    <contour>
      <point x="589.6" y="889.2" type="curve"/>
      <point x="567.4" y="909.4"/>
      <point x="548.4" y="928.8"/>
      <point x="530.0" y="948.2" type="curve" smooth="yes"/>
      <point x="485.4" y="995.4"/>
      <point x="442.0" y="1052.4"/>
      <point x="442.0" y="1140.2" type="curve" smooth="yes"/>
      <point x="442.0" y="1246.4"/>
      <point x="526.0" y="1296.6"/>
      <point x="632.2" y="1296.6" type="curve" smooth="yes"/>
      <point x="736.6" y="1296.6"/>
      <point x="821.2" y="1245.4"/>
      <point x="821.2" y="1140.2" type="curve" smooth="yes"/>
      <point x="821.2" y="1113.2"/>
      <point x="814.6" y="1088.0"/>
      <point x="801.0" y="1063.8" type="curve" smooth="yes"/>
      <point x="757.6" y="984.6"/>
      <point x="671.6" y="932.8"/>
    </contour>
  </outline>
</glyph>
<glyph name="quotesingle" format="1">
  <advance width="469.6"/>
  <unicode hex="0027"/>
  <outline>
    <contour>
      <point x="184.0" y="838.4" type="line"/>
      <point x="309.4" y="838.4" type="line"/>
      <point x="309.4" y="1284.4" type="line"/>
      <point x="149.2" y="1284.4" type="line"/>
    </contour>
  </outline>
</glyph>
<glyph name="zero" format="1">
  <advance width="1239.6"/>
  <unicode hex="0030"/>
  <outline>
    <contour>
      <point x="620.8" y="107.6" type="curve" smooth="yes"/>
      <point x="316.0" y="107.6"/>
      <point x="282.6" y="441.0"/>
      <point x="282.6" y="724.2" type="curve" smooth="yes"/>
      <point x="282.6" y="990.6"/>
      <point x="337.6" y="1346.2"/>
      <point x="620.8" y="1346.2" type="curve" smooth="yes"/>
      <point x="924.8" y="1346.2"/>
      <point x="958.6" y="1005.0"/>
      <point x="958.6" y="724.2" type="curve" smooth="yes"/>
      <point x="958.6" y="461.4"/>
      <point x="898.4" y="107.6"/>
    </contour>
    <contour>
      <point x="614.8" y="-31.2" type="curve" smooth="yes"/>
      <point x="1000.6" y="-31.2"/>
      <point x="1124.0" y="349.8"/>
      <point x="1124.0" y="724.2" type="curve" smooth="yes"/>
      <point x="1124.0" y="1123.8"/>
      <point x="1037.8" y="1484.8"/>
      <point x="620.8" y="1484.8" type="curve" smooth="yes"/>
      <point x="227.2" y="1484.8"/>
      <point x="115.6" y="1107.0"/>
      <point x="115.6" y="724.2" type="curve" smooth="yes"/>
      <point x="115.6" y="342.6"/>
      <point x="217.6" y="-31.2"/>
    </contour>
  </outline>
</glyph>
<glyph name="three" format="1">
  <advance width="1238.4"/>
  <unicode hex="0033"/>
  <outline>
    <contour>
      <point x="603.2" y="-22.0" type="curve" smooth="yes"/>
      <point x="894.2" y="-22.0"/>
      <point x="1113.0" y="117.0"/>
      <point x="1113.0" y="401.6" type="curve" smooth="yes"/>
      <point x="1113.0" y="613.0"/>
      <point x="970.8" y="723.6"/>
      <point x="767.0" y="762.8" type="curve"/>
      <point x="943.0" y="809.6"/>
      <point x="1072.6" y="914.6"/>
      <point x="1072.6" y="1116.6" type="curve" smooth="yes"/>
      <point x="1072.6" y="1359.4"/>
      <point x="857.6" y="1485.6"/>
      <point x="606.2" y="1485.6" type="curve" smooth="yes"/>
      <point x="388.6" y="1485.6"/>
      <point x="223.6" y="1392.8"/>
      <point x="173.4" y="1238.4" type="curve"/>
      <point x="266.0" y="1159.8" type="line"/>
      <point x="330.2" y="1274.8"/>
      <point x="429.8" y="1347.6"/>
      <point x="604.6" y="1347.6" type="curve" smooth="yes"/>
      <point x="774.6" y="1347.6"/>
      <point x="895.4" y="1286.4"/>
      <point x="895.4" y="1121.4" type="curve" smooth="yes"/>
      <point x="895.4" y="893.8"/>
      <point x="741.6" y="828.6"/>
      <point x="500.4" y="828.6" type="curve" smooth="yes"/>
      <point x="435.0" y="828.6" type="line"/>
      <point x="437.0" y="693.8" type="line"/>
      <point x="516.4" y="695.8" type="line" smooth="yes"/>
      <point x="752.0" y="704.2"/>
      <point x="941.8" y="632.0"/>
      <point x="941.8" y="404.6" type="curve" smooth="yes"/>
      <point x="941.8" y="200.8"/>
      <point x="775.8" y="104.0"/>
      <point x="577.4" y="104.0" type="curve" smooth="yes"/>
      <point x="389.2" y="104.0"/>
      <point x="270.4" y="194.6"/>
      <point x="238.0" y="324.2" type="curve"/>
      <point x="154.6" y="236.6" type="line"/>
      <point x="180.4" y="57.2"/>
      <point x="388.0" y="-22.0"/>
    </contour>
  </outline>
</glyph>
<glyph name="five" format="1">
  <advance width="1238.4"/>
  <unicode hex="0035"/>
  <outline>
    <contour>
      <point x="185.6" y="176.0" type="line"/>
      <point x="254.4" y="60.6"/>
      <point x="404.8" y="-20.0"/>
      <point x="601.8" y="-20.0" type="curve" smooth="yes"/>
      <point x="904.0" y="-20.6"/>
      <point x="1102.6" y="168.0"/>
      <point x="1102.6" y="452.2" type="curve" smooth="yes"/>
      <point x="1102.6" y="689.0"/>
      <point x="961.6" y="900.2"/>
      <point x="652.8" y="900.2" type="curve" smooth="yes"/>
      <point x="520.4" y="900.2"/>
      <point x="426.6" y="840.6"/>
      <point x="377.0" y="788.6" type="curve"/>
      <point x="390.8" y="1332.2" type="line"/>
      <point x="988.8" y="1332.2" type="line"/>
      <point x="988.8" y="1466.4" type="line"/>
      <point x="241.6" y="1466.4" type="line"/>
      <point x="241.6" y="689.6" type="line"/>
      <point x="417.8" y="660.8" type="line"/>
      <point x="451.2" y="718.2"/>
      <point x="540.0" y="763.0"/>
      <point x="641.4" y="763.0" type="curve" smooth="yes"/>
      <point x="832.4" y="763.4"/>
      <point x="938.6" y="648.6"/>
      <point x="938.6" y="450.6" type="curve" smooth="yes"/>
      <point x="938.6" y="262.0"/>
      <point x="828.2" y="106.6"/>
      <point x="600.6" y="106.6" type="curve" smooth="yes"/>
      <point x="440.8" y="106.4"/>
      <point x="321.8" y="181.0"/>
      <point x="264.8" y="276.2" type="curve"/>
    </contour>
  </outline>
</glyph>
<glyph name="six" format="1">
  <advance width="1238.4"/>
  <unicode hex="0036"/>
  <outline>
    <contour>
      <point x="662.2" y="-19.4" type="curve" smooth="yes"/>
      <point x="922.0" y="-19.4"/>
      <point x="1117.6" y="184.6"/>
      <point x="1117.6" y="465.8" type="curve" smooth="yes"/>
      <point x="1117.6" y="737.6"/>
      <point x="937.4" y="948.6"/>
      <point x="669.6" y="948.6" type="curve" smooth="yes"/>
      <point x="558.6" y="948.6"/>
      <point x="366.2" y="890.2"/>
      <point x="297.0" y="752.8" type="curve"/>
      <point x="340.4" y="1062.8"/>
      <point x="552.4" y="1306.4"/>
      <point x="912.8" y="1345.6" type="curve"/>
      <point x="885.0" y="1466.6" type="line"/>
      <point x="279.6" y="1390.4"/>
      <point x="113.4" y="900.4"/>
      <point x="142.6" y="509.4" type="curve" smooth="yes"/>
      <point x="161.6" y="262.0"/>
      <point x="287.4" y="-19.4"/>
    </contour>
    <contour>
      <point x="662.0" y="110.4" type="curve" smooth="yes"/>
      <point x="420.4" y="110.4"/>
      <point x="299.0" y="298.4"/>
      <point x="299.0" y="474.4" type="curve" smooth="yes"/>
      <point x="299.0" y="664.0"/>
      <point x="437.8" y="824.8"/>
      <point x="641.4" y="824.8" type="curve" smooth="yes"/>
      <point x="869.6" y="824.8"/>
      <point x="964.4" y="655.2"/>
      <point x="964.4" y="462.8" type="curve" smooth="yes"/>
      <point x="964.4" y="253.0"/>
      <point x="854.6" y="110.4"/>
    </contour>
  </outline>
</glyph>
<glyph name="colon" format="1">
  <advance width="457.8"/>
  <unicode hex="003A"/>
  <outline>
    <contour>
      <point x="134.8" y="-9.2" type="line"/>
      <point x="344.2" y="-9.2" type="line"/>
      <point x="344.2" y="193.4" type="line"/>
      <point x="134.8" y="193.4" type="line"/>
    </contour>
    <contour>
      <point x="134.8" y="813.2" type="line"/>
      <point x="344.2" y="813.2" type="line"/>
      <point x="344.2" y="1015.8" type="line"/>
      <point x="134.8" y="1015.8" type="line"/>
    </contour>
  </outline>
</glyph>
<glyph name="less" format="1">
  <advance width="1236.2"/>
  <unicode hex="003C"/>
  <outline>
    <contour>
      <point x="1190.6" y="40.8" type="line"/>
      <point x="1190.6" y="192.8" type="line"/>
      <point x="404.8" y="545.2" type="line"/>
      <point x="1194.6" y="907.4" type="line"/>
      <point x="1194.6" y="1060.8" type="line"/>
      <point x="185.6" y="588.2" type="line"/>
      <point x="185.6" y="501.2" type="line"/>
    </contour>
  </outline>
</glyph>
<glyph name="A" format="1">
  <advance width="1405.2"/>
  <unicode hex="0041"/>
  <outline>
    <contour>
      <point x="0.4" y="0.0" type="line"/>
      <point x="168.8" y="0.0" type="line"/>
      <point x="329.8" y="407.0" type="line"/>
      <point x="1062.2" y="407.0" type="line"/>
      <point x="1226.4" y="0.0" type="line"/>
      <point x="1398.6" y="0.0" type="line"/>
      <point x="785.0" y="1457.6" type="line"/>
      <point x="611.6" y="1457.6" type="line"/>
    </contour>
    <contour>
      <point x="379.8" y="530.6" type="line"/>
      <point x="596.4" y="1081.2" type="line"/>
      <point x="695.4" y="1333.4" type="line"/>
      <point x="791.0" y="1082.4" type="line"/>
      <point x="1011.8" y="530.6" type="line"/>
    </contour>
  </outline>
</glyph>
<glyph name="C" format="1">
  <advance width="1373.0"/>
  <unicode hex="0043"/>
  <outline>
    <contour>
      <point x="799.2" y="-22.0" type="curve" smooth="yes"/>
      <point x="1005.4" y="-22.0"/>
      <point x="1154.8" y="32.4"/>
      <point x="1275.8" y="129.8" type="curve"/>
      <point x="1223.0" y="254.2" type="line"/>
      <point x="1121.6" y="164.4"/>
      <point x="991.0" y="116.0"/>
      <point x="800.6" y="116.0" type="curve" smooth="yes"/>
      <point x="434.2" y="116.0"/>
      <point x="270.8" y="375.6"/>
      <point x="270.8" y="726.2" type="curve" smooth="yes"/>
      <point x="270.8" y="1084.8"/>
      <point x="455.6" y="1347.6"/>
      <point x="819.6" y="1347.6" type="curve" smooth="yes"/>
      <point x="958.8" y="1347.6"/>
      <point x="1082.2" y="1301.0"/>
      <point x="1184.8" y="1223.6" type="curve"/>
      <point x="1262.0" y="1334.4" type="line"/>
      <point x="1152.4" y="1414.8"/>
      <point x="1028.4" y="1485.6"/>
      <point x="797.4" y="1485.6" type="curve" smooth="yes"/>
      <point x="376.6" y="1485.6"/>
      <point x="105.6" y="1167.2"/>
      <point x="105.6" y="727.2" type="curve" smooth="yes"/>
      <point x="105.6" y="289.6"/>
      <point x="362.6" y="-22.0"/>
    </contour>
  </outline>
</glyph>
<glyph name="D" format="1">
  <advance width="1500.8"/>
  <unicode hex="0044"/>
  <outline>
    <contour>
      <point x="324.0" y="137.6" type="line"/>
      <point x="324.0" y="1320.0" type="line"/>
      <point x="488.6" y="1320.0" type="line" smooth="yes"/>
      <point x="943.6" y="1320.0"/>
      <point x="1230.0" y="1186.4"/>
      <point x="1230.0" y="718.2" type="curve" smooth="yes"/>
      <point x="1230.0" y="335.6"/>
      <point x="979.6" y="137.6"/>
      <point x="596.8" y="137.6" type="curve" smooth="yes"/>
    </contour>
    <contour>
      <point x="170.8" y="0.0" type="line"/>
      <point x="580.8" y="0.0" type="line" smooth="yes"/>
      <point x="1043.8" y="0.0"/>
      <point x="1394.8" y="245.0"/>
      <point x="1394.8" y="721.2" type="curve" smooth="yes"/>
      <point x="1394.8" y="1280.4"/>
      <point x="1000.4" y="1457.6"/>
      <point x="470.0" y="1457.6" type="curve" smooth="yes"/>
      <point x="170.8" y="1457.6" type="line"/>
    </contour>
  </outline>
</glyph>
<glyph name="E" format="1">
  <advance width="1171.6"/>
  <unicode hex="0045"/>
  <outline>
    <contour>
      <point x="170.8" y="0.0" type="line"/>
      <point x="1079.8" y="0.0" type="line"/>
      <point x="1079.8" y="137.6" type="line"/>
      <point x="325.4" y="137.6" type="line"/>
      <point x="325.4" y="678.0" type="line"/>
      <point x="991.8" y="678.0" type="line"/>
      <point x="991.8" y="817.0" type="line"/>
      <point x="325.4" y="817.0" type="line"/>
      <point x="325.4" y="1320.0" type="line"/>
      <point x="1029.8" y="1320.0" type="line"/>
      <point x="1029.8" y="1457.6" type="line"/>
      <point x="170.8" y="1457.6" type="line"/>
    </contour>
  </outline>
</glyph>
<glyph name="G" format="1">
  <advance width="1490.4"/>
  <unicode hex="0047"/>
  <outline>
    <contour>
      <point x="829.2" y="-22.0" type="curve" smooth="yes"/>
      <point x="1030.6" y="-22.0"/>
      <point x="1178.8" y="12.4"/>
      <point x="1326.4" y="81.6" type="curve"/>
      <point x="1326.4" y="753.8" type="line"/>
      <point x="799.4" y="753.8" type="line"/>
      <point x="799.4" y="610.6" type="line"/>
      <point x="1168.8" y="610.6" type="line"/>
      <point x="1168.8" y="164.2" type="line"/>
      <point x="1074.8" y="126.8"/>
      <point x="967.6" y="116.0"/>
      <point x="843.4" y="116.0" type="curve" smooth="yes"/>
      <point x="461.6" y="116.0"/>
      <point x="264.6" y="334.6"/>
      <point x="264.6" y="716.6" type="curve" smooth="yes"/>
      <point x="264.6" y="1076.2"/>
      <point x="469.6" y="1347.6"/>
      <point x="830.8" y="1347.6" type="curve" smooth="yes"/>
      <point x="1013.4" y="1347.6"/>
      <point x="1144.0" y="1302.0"/>
      <point x="1231.2" y="1208.6" type="curve"/>
      <point x="1301.2" y="1311.2" type="line"/>
      <point x="1188.6" y="1434.0"/>
      <point x="1057.6" y="1485.6"/>
      <point x="837.6" y="1485.6" type="curve" smooth="yes"/>
      <point x="377.4" y="1485.6"/>
      <point x="105.6" y="1166.2"/>
      <point x="105.6" y="703.8" type="curve" smooth="yes"/>
      <point x="105.6" y="235.6"/>
      <point x="366.0" y="-22.0"/>
    </contour>
  </outline>
</glyph>
<glyph name="H" format="1">
  <advance width="1465.8"/>
  <unicode hex="0048"/>
  <outline>
    <contour>
      <point x="170.8" y="0.0" type="line"/>
      <point x="325.4" y="0.0" type="line"/>
      <point x="325.4" y="681.8" type="line"/>
      <point x="1139.6" y="681.8" type="line"/>
      <point x="1139.6" y="0.0" type="line"/>
      <point x="1295.0" y="0.0" type="line"/>
      <point x="1295.0" y="1457.6" type="line"/>
      <point x="1139.6" y="1457.6" type="line"/>
      <point x="1139.6" y="816.4" type="line"/>
      <point x="325.4" y="816.4" type="line"/>
      <point x="325.4" y="1457.6" type="line"/>
      <point x="170.8" y="1457.6" type="line"/>
    </contour>
  </outline>
</glyph>
<glyph name="I" format="1">
  <advance width="525.0"/>
  <unicode hex="0049"/>
  <outline>
    <contour>
      <point x="185.2" y="0.0" type="line"/>
      <point x="339.8" y="0.0" type="line"/>
      <point x="339.8" y="1457.6" type="line"/>
      <point x="185.2" y="1457.6" type="line"/>
    </contour>
  </outline>
</glyph>
<glyph name="J" format="1">
  <advance width="1012.8"/>
  <unicode hex="004A"/>
  <outline>
    <contour>
      <point x="32.8" y="-114.0" type="line"/>
      <point x="134.2" y="-160.0"/>
      <point x="233.4" y="-184.4"/>
      <point x="324.4" y="-184.4" type="curve" smooth="yes"/>
      <point x="558.0" y="-184.4"/>
      <point x="735.6" y="-23.8"/>
      <point x="735.6" y="344.6" type="curve" smooth="yes"/>
      <point x="735.6" y="1327.2" type="line"/>
      <point x="1008.0" y="1327.2" type="line"/>
      <point x="1008.0" y="1457.6" type="line"/>
      <point x="154.2" y="1457.6" type="line"/>
      <point x="154.2" y="1327.2" type="line"/>
      <point x="581.0" y="1327.2" type="line"/>
      <point x="581.0" y="342.4" type="line" smooth="yes"/>
      <point x="581.0" y="69.4"/>
      <point x="482.2" y="-51.2"/>
      <point x="318.2" y="-51.2" type="curve" smooth="yes"/>
      <point x="249.6" y="-51.2"/>
      <point x="169.6" y="-30.6"/>
      <point x="80.8" y="8.4" type="curve"/>
    </contour>
  </outline>
</glyph>
<glyph name="K" format="1">
  <advance width="1225.4"/>
  <unicode hex="004B"/>
  <outline>
    <contour>
      <point x="170.8" y="0.0" type="line"/>
      <point x="325.4" y="0.0" type="line"/>
      <point x="325.4" y="733.8" type="line"/>
      <point x="1026.0" y="0.0" type="line"/>
      <point x="1221.4" y="0.0" type="line"/>
      <point x="496.8" y="762.2" type="line"/>
      <point x="1180.2" y="1457.6" type="line"/>
      <point x="988.0" y="1457.6" type="line"/>
      <point x="325.4" y="790.8" type="line"/>
      <point x="325.4" y="1457.6" type="line"/>
      <point x="170.8" y="1457.6" type="line"/>
    </contour>
  </outline>
</glyph>
<glyph name="L" format="1">
  <advance width="1056.8"/>
  <unicode hex="004C"/>
  <outline>
    <contour>
      <point x="170.8" y="0.0" type="line"/>
      <point x="1035.2" y="0.0" type="line"/>
      <point x="1035.2" y="137.6" type="line"/>
      <point x="325.4" y="137.6" type="line"/>
      <point x="325.4" y="1457.6" type="line"/>
      <point x="170.8" y="1457.6" type="line"/>
    </contour>
  </outline>
</glyph>
<glyph name="M" format="1">
  <advance width="1932.2"/>
  <unicode hex="004D"/>
  <outline>
    <contour>
      <point x="170.8" y="0.0" type="line"/>
      <point x="322.8" y="0.0" type="line"/>
      <point x="322.8" y="1302.8" type="line"/>
      <point x="385.6" y="1154.6" type="line"/>
      <point x="901.2" y="218.2" type="line"/>
      <point x="1027.4" y="218.2" type="line"/>
      <point x="1537.6" y="1142.6" type="line"/>
      <point x="1609.8" y="1285.8" type="line"/>
      <point x="1609.8" y="0.0" type="line"/>
      <point x="1761.4" y="0.0" type="line"/>
      <point x="1761.4" y="1457.6" type="line"/>
      <point x="1563.8" y="1457.6" type="line"/>
      <point x="1051.4" y="551.4" type="line"/>
      <point x="966.2" y="390.2" type="line"/>
      <point x="880.2" y="548.2" type="line"/>
      <point x="382.8" y="1457.6" type="line"/>
      <point x="170.8" y="1457.6" type="line"/>
    </contour>
  </outline>
</glyph>
<glyph name="Q" format="1">
  <advance width="1641.8"/>
  <unicode hex="0051"/>
  <outline>
    <contour>
      <point x="1222.4" y="-421.4" type="curve"/>
      <point x="1320.4" y="-311.2" type="line"/>
      <point x="1222.2" y="-220.2"/>
      <point x="1134.2" y="-117.2"/>
      <point x="1071.2" y="13.0" type="curve"/>
      <point x="920.0" y="-12.0" type="line"/>
      <point x="996.0" y="-175.2"/>
      <point x="1105.0" y="-304.2"/>
    </contour>
    <component base="O"/>
  </outline>
</glyph>
<glyph name="R" format="1">
  <advance width="1304.6"/>
  <unicode hex="0052"/>
  <outline>
    <contour>
      <point x="170.8" y="0.0" type="line"/>
      <point x="325.4" y="0.0" type="line"/>
      <point x="325.4" y="654.8" type="line"/>
      <point x="609.8" y="654.8" type="line" smooth="yes"/>
      <point x="820.4" y="654.8"/>
      <point x="865.4" y="562.6"/>
      <point x="918.8" y="419.4" type="curve" smooth="yes"/>
      <point x="1074.0" y="0.0" type="line"/>
      <point x="1244.2" y="0.0" type="line"/>
      <point x="1077.2" y="410.4" type="line" smooth="yes"/>
      <point x="1024.4" y="538.8"/>
      <point x="980.2" y="672.0"/>
      <point x="840.6" y="718.2" type="curve"/>
      <point x="993.8" y="757.8"/>
      <point x="1152.2" y="864.8"/>
      <point x="1152.2" y="1075.0" type="curve" smooth="yes"/>
      <point x="1152.2" y="1425.0"/>
      <point x="823.8" y="1457.6"/>
      <point x="503.8" y="1457.6" type="curve" smooth="yes"/>
      <point x="170.8" y="1457.6" type="line"/>
    </contour>
    <contour>
      <point x="325.4" y="794.6" type="line"/>
      <point x="325.4" y="1320.0" type="line"/>
      <point x="610.8" y="1320.0" type="line" smooth="yes"/>
      <point x="810.8" y="1320.0"/>
      <point x="984.0" y="1270.4"/>
      <point x="984.0" y="1058.8" type="curve" smooth="yes"/>
      <point x="984.0" y="853.4"/>
      <point x="791.0" y="794.6"/>
      <point x="599.6" y="794.6" type="curve" smooth="yes"/>
    </contour>
  </outline>
</glyph>
<glyph name="S" format="1">
  <advance width="1231.50975485"/>
  <unicode hex="0053"/>
  <outline>
    <contour>
      <point x="661.15621222" y="-22.0" type="curve" smooth="yes"/>
      <point x="985.15621222" y="-22.0"/>
      <point x="1130.15621222" y="166.4"/>
      <point x="1129.15621222" y="395.8" type="curve" smooth="yes"/>
      <point x="1127.95621222" y="565.2"/>
      <point x="1050.15621222" y="702.8"/>
      <point x="672.55621222" y="808.6" type="curve" smooth="yes"/>
      <point x="360.15621222" y="896.4"/>
      <point x="302.35621222" y="982.8"/>
      <point x="309.55621222" y="1127.2" type="curve" smooth="yes"/>
      <point x="316.75621222" y="1278.2"/>
      <point x="438.35621222" y="1351.2"/>
      <point x="653.95621222" y="1351.2" type="curve" smooth="yes"/>
      <point x="778.75621222" y="1351.2"/>
      <point x="921.55621222" y="1302.0"/>
      <point x="1030.75621222" y="1231.4" type="curve"/>
      <point x="1079.15621222" y="1361.8" type="line"/>
      <point x="919.55621222" y="1462.0"/>
      <point x="765.55621222" y="1485.6"/>
      <point x="633.55621222" y="1485.6" type="curve" smooth="yes"/>
      <point x="358.75621222" y="1485.6"/>
      <point x="147.35621222" y="1351.6"/>
      <point x="142.55621222" y="1119.0" type="curve" smooth="yes"/>
      <point x="137.75621222" y="905.2"/>
      <point x="226.95621222" y="773.0"/>
      <point x="570.35621222" y="674.6" type="curve" smooth="yes"/>
      <point x="912.75621222" y="576.8"/>
      <point x="955.55621222" y="502.8"/>
      <point x="955.55621222" y="404.2" type="curve" smooth="yes"/>
      <point x="955.55621222" y="220.2"/>
      <point x="856.55621222" y="107.6"/>
      <point x="645.15621222" y="107.6" type="curve" smooth="yes"/>
      <point x="496.35621222" y="107.6"/>
      <point x="290.75621222" y="177.8"/>
      <point x="168.75621222" y="280.6" type="curve"/>
      <point x="146.95621222" y="123.4" type="line"/>
      <point x="279.95621222" y="35.4"/>
      <point x="484.55621222" y="-22.0"/>
    </contour>
  </outline>
</glyph>
<glyph name="T" format="1">
  <advance width="1148.4"/>
  <unicode hex="0054"/>
  <outline>
    <contour>
      <point x="495.0" y="0.0" type="line"/>
      <point x="649.8" y="0.0" type="line"/>
      <point x="649.8" y="1320.0" type="line"/>
      <point x="1130.8" y="1320.0" type="line"/>
      <point x="1130.8" y="1457.6" type="line"/>
      <point x="17.4" y="1457.6" type="line"/>
      <point x="17.4" y="1320.0" type="line"/>
      <point x="495.0" y="1320.0" type="line"/>
    </contour>
  </outline>
</glyph>
<glyph name="U" format="1">
  <advance width="1449.4"/>
  <unicode hex="0055"/>
  <outline>
    <contour>
      <point x="737.2" y="-22.0" type="curve" smooth="yes"/>
      <point x="1097.6" y="-22.0"/>
      <point x="1283.8" y="186.6"/>
      <point x="1286.2" y="549.6" type="curve"/>
      <point x="1286.2" y="1457.6" type="line"/>
      <point x="1132.6" y="1457.6" type="line"/>
      <point x="1132.6" y="537.8" type="line" smooth="yes"/>
      <point x="1132.6" y="267.8"/>
      <point x="994.2" y="107.6"/>
      <point x="735.0" y="107.6" type="curve" smooth="yes"/>
      <point x="454.2" y="107.6"/>
      <point x="317.8" y="244.4"/>
      <point x="317.8" y="544.8" type="curve" smooth="yes"/>
      <point x="317.8" y="1457.6" type="line"/>
      <point x="163.0" y="1457.6" type="line"/>
      <point x="163.0" y="539.8" type="line" smooth="yes"/>
      <point x="163.0" y="146.8"/>
      <point x="353.2" y="-22.0"/>
    </contour>
  </outline>
</glyph>
<glyph name="V" format="1">
  <advance width="1324.4"/>
  <unicode hex="0056"/>
  <outline>
    <contour>
      <point x="585.0" y="1.2" type="line"/>
      <point x="752.6" y="1.2" type="line"/>
      <point x="1310.6" y="1457.6" type="line"/>
      <point x="1147.8" y="1457.6" type="line"/>
      <point x="702.4" y="263.0" type="line"/>
      <point x="666.2" y="156.2" type="line"/>
      <point x="634.0" y="264.0" type="line"/>
      <point x="185.6" y="1457.6" type="line"/>
      <point x="15.0" y="1457.6" type="line"/>
    </contour>
  </outline>
</glyph>
<glyph name="Z" format="1">
  <advance width="1208.2"/>
  <unicode hex="005A"/>
  <outline>
    <contour>
      <point x="90.4" y="0.0" type="line"/>
      <point x="1138.8" y="0.0" type="line"/>
      <point x="1138.8" y="137.6" type="line"/>
      <point x="304.0" y="137.6" type="line"/>
      <point x="1146.8" y="1388.0" type="line"/>
      <point x="1146.8" y="1457.6" type="line"/>
      <point x="122.6" y="1457.6" type="line"/>
      <point x="122.6" y="1320.0" type="line"/>
      <point x="927.8" y="1320.0" type="line"/>
      <point x="90.4" y="70.8" type="line"/>
    </contour>
  </outline>
</glyph>
<glyph name="bracketleft" format="1">
  <advance width="572.0"/>
  <unicode hex="005B"/>
  <outline>
    <contour>
      <point x="179.8" y="-268.0" type="line"/>
      <point x="518.0" y="-268.0" type="line"/>
      <point x="518.0" y="-147.4" type="line"/>
      <point x="323.6" y="-147.4" type="line"/>
      <point x="323.6" y="1323.2" type="line"/>
      <point x="516.8" y="1323.2" type="line"/>
      <point x="516.8" y="1443.6" type="line"/>
      <point x="179.8" y="1443.6" type="line"/>
    </contour>
  </outline>
</glyph>
<glyph name="backslash" format="1">
  <advance width="596.2"/>
  <unicode hex="005C"/>
  <outline>
    <contour>
      <point x="549.4" y="-258.0" type="line"/>
      <point x="698.0" y="-258.0" type="line"/>
      <point x="56.0" y="1451.6" type="line"/>
      <point x="-97.0" y="1451.6" type="line"/>
    </contour>
  </outline>
</glyph>
<glyph name="bracketright" format="1">
  <advance width="532.6"/>
  <unicode hex="005D"/>
  <outline>
    <contour>
      <point x="71.2" y="-264.4" type="line"/>
      <point x="407.0" y="-264.4" type="line"/>
      <point x="407.0" y="1447.2" type="line"/>
      <point x="60.2" y="1447.2" type="line"/>
      <point x="72.2" y="1326.8" type="line"/>
      <point x="261.8" y="1326.8" type="line"/>
      <point x="261.8" y="-143.8" type="line"/>
      <point x="71.2" y="-143.8" type="line"/>
    </contour>
  </outline>
</glyph>
<glyph name="grave" format="1">
  <advance width="502.8"/>
  <unicode hex="0060"/>
  <outline>
    <contour>
      <point x="354.4" y="993.6" type="line"/>
      <point x="471.4" y="993.6" type="line"/>
      <point x="224.2" y="1314.0" type="line"/>
      <point x="22.0" y="1314.0" type="line"/>
    </contour>
  </outline>
</glyph>
<glyph name="c" format="1">
  <advance width="1071.6"/>
  <unicode hex="0063"/>
  <outline>
    <contour>
      <point x="646.2" y="-23.2" type="curve" smooth="yes"/>
      <point x="776.8" y="-23.2"/>
      <point x="911.6" y="23.0"/>
      <point x="1022.4" y="113.6" type="curve"/>
      <point x="969.6" y="227.6" type="line"/>
      <point x="884.0" y="146.2"/>
      <point x="768.0" y="108.0"/>
      <point x="663.0" y="108.0" type="curve" smooth="yes"/>
      <point x="462.6" y="108.0"/>
      <point x="256.2" y="223.4"/>
      <point x="256.2" y="509.6" type="curve" smooth="yes"/>
      <point x="256.2" y="784.8"/>
      <point x="466.4" y="924.2"/>
      <point x="668.8" y="924.2" type="curve" smooth="yes"/>
      <point x="766.6" y="924.2"/>
      <point x="864.4" y="887.6"/>
      <point x="934.6" y="813.6" type="curve"/>
      <point x="992.4" y="922.8" type="line"/>
      <point x="897.2" y="1018.6"/>
      <point x="775.2" y="1056.8"/>
      <point x="653.2" y="1056.8" type="curve" smooth="yes"/>
      <point x="382.6" y="1056.8"/>
      <point x="102.0" y="863.2"/>
      <point x="102.0" y="503.8" type="curve" smooth="yes"/>
      <point x="102.0" y="140.6"/>
      <point x="380.8" y="-23.2"/>
    </contour>
  </outline>
</glyph>
<glyph name="e" format="1">
  <advance width="1053.0"/>
  <unicode hex="0065"/>
  <outline>
    <contour>
      <point x="612.4" y="-22.0" type="curve" smooth="yes"/>
      <point x="774.0" y="-22.0"/>
      <point x="921.2" y="43.0"/>
      <point x="1018.6" y="146.8" type="curve"/>
      <point x="936.6" y="240.0" type="line"/>
      <point x="873.8" y="165.8"/>
      <point x="754.2" y="104.4"/>
      <point x="611.6" y="104.4" type="curve" smooth="yes"/>
      <point x="460.8" y="104.4"/>
      <point x="309.2" y="214.6"/>
      <point x="269.2" y="375.8" type="curve"/>
      <point x="651.2" y="440.6"/>
      <point x="952.4" y="506.8"/>
      <point x="952.4" y="755.4" type="curve" smooth="yes"/>
      <point x="952.4" y="921.4"/>
      <point x="814.8" y="1054.4"/>
      <point x="601.6" y="1054.4" type="curve" smooth="yes"/>
      <point x="270.0" y="1054.4"/>
      <point x="88.8" y="798.2"/>
      <point x="88.8" y="519.4" type="curve" smooth="yes"/>
      <point x="88.8" y="187.4"/>
      <point x="314.4" y="-22.0"/>
    </contour>
    <contour>
      <point x="259.6" y="484.4" type="curve"/>
      <point x="257.2" y="503.6"/>
      <point x="256.0" y="524.6"/>
      <point x="256.0" y="541.4" type="curve" smooth="yes"/>
      <point x="255.0" y="801.4"/>
      <point x="437.4" y="922.2"/>
      <point x="604.8" y="922.2" type="curve" smooth="yes"/>
      <point x="732.8" y="922.2"/>
      <point x="804.2" y="857.8"/>
      <point x="804.2" y="761.6" type="curve" smooth="yes"/>
      <point x="804.2" y="591.2"/>
      <point x="572.0" y="537.2"/>
    </contour>
  </outline>
</glyph>
<glyph name="i" format="1">
  <advance width="576.6"/>
  <unicode hex="0069"/>
  <outline>
    <contour>
      <point x="606.6" y="23.6" type="curve"/>
      <point x="585.2" y="129.6" type="line"/>
      <point x="450.2" y="80.6"/>
      <point x="315.0" y="56.2"/>
      <point x="315.0" y="252.6" type="curve" smooth="yes"/>
      <point x="315.0" y="1032.0" type="line"/>
      <point x="167.0" y="1032.0" type="line"/>
      <point x="167.0" y="259.0" type="line" smooth="yes"/>
      <point x="167.0" y="-18.4"/>
      <point x="374.2" y="-69.8"/>
    </contour>
    <contour>
      <point x="242.6" y="1258.8" type="curve" smooth="yes"/>
      <point x="287.6" y="1258.8"/>
      <point x="338.4" y="1285.8"/>
      <point x="338.4" y="1346.8" type="curve" smooth="yes"/>
      <point x="338.4" y="1407.8"/>
      <point x="288.8" y="1435.6"/>
      <point x="243.4" y="1435.6" type="curve" smooth="yes"/>
      <point x="198.6" y="1435.6"/>
      <point x="147.6" y="1408.6"/>
      <point x="147.6" y="1347.8" type="curve" smooth="yes"/>
      <point x="147.6" y="1287.0"/>
      <point x="197.4" y="1258.8"/>
    </contour>
  </outline>
</glyph>
<glyph name="j" format="1">
  <advance width="511.4"/>
  <unicode hex="006A"/>
  <outline>
    <contour>
      <point x="-14.6" y="-456.0" type="curve" smooth="yes"/>
      <point x="185.8" y="-456.0"/>
      <point x="345.6" y="-316.2"/>
      <point x="345.6" y="51.6" type="curve" smooth="yes"/>
      <point x="345.6" y="1032.0" type="line"/>
      <point x="197.6" y="1032.0" type="line"/>
      <point x="197.6" y="45.8" type="line" smooth="yes"/>
      <point x="197.6" y="-253.2"/>
      <point x="94.6" y="-339.6"/>
      <point x="-32.6" y="-339.6" type="curve" smooth="yes"/>
      <point x="-82.0" y="-339.6"/>
      <point x="-128.6" y="-328.4"/>
      <point x="-169.8" y="-312.2" type="curve"/>
      <point x="-186.0" y="-427.0" type="line"/>
      <point x="-127.4" y="-445.6"/>
      <point x="-69.6" y="-456.0"/>
    </contour>
    <contour>
      <point x="275.4" y="1260.2" type="curve" smooth="yes"/>
      <point x="320.2" y="1260.2"/>
      <point x="371.0" y="1287.0"/>
      <point x="371.0" y="1348.2" type="curve" smooth="yes"/>
      <point x="371.0" y="1408.8"/>
      <point x="321.4" y="1436.6"/>
      <point x="276.2" y="1436.6" type="curve" smooth="yes"/>
      <point x="231.2" y="1436.6"/>
      <point x="180.4" y="1410.0"/>
      <point x="180.4" y="1349.2" type="curve" smooth="yes"/>
      <point x="180.4" y="1288.0"/>
      <point x="230.0" y="1260.2"/>
    </contour>
  </outline>
</glyph>
<glyph name="l" format="1">
  <advance width="674.4"/>
  <unicode hex="006C"/>
  <outline>
    <contour>
      <point x="688.0" y="138.8" type="line"/>
      <point x="620.6" y="109.4"/>
      <point x="557.8" y="91.4"/>
      <point x="498.4" y="91.4" type="curve" smooth="yes"/>
      <point x="396.4" y="91.4"/>
      <point x="316.8" y="142.6"/>
      <point x="316.8" y="279.8" type="curve" smooth="yes"/>
      <point x="316.8" y="1520.2" type="line"/>
      <point x="168.8" y="1490.0" type="line"/>
      <point x="168.8" y="299.8" type="line" smooth="yes"/>
      <point x="168.8" y="83.0"/>
      <point x="306.8" y="-19.4"/>
      <point x="479.2" y="-19.4" type="curve" smooth="yes"/>
      <point x="552.6" y="-19.4"/>
      <point x="634.4" y="-0.8"/>
      <point x="713.0" y="36.4" type="curve"/>
    </contour>
  </outline>
</glyph>
<glyph name="p" format="1">
  <advance width="1237.2"/>
  <unicode hex="0070"/>
  <outline>
    <contour>
      <point x="173.0" y="-449.2" type="line"/>
      <point x="320.0" y="-427.6" type="line"/>
      <point x="319.6" y="100.6" type="line"/>
      <point x="395.4" y="22.2"/>
      <point x="538.6" y="-22.0"/>
      <point x="687.8" y="-22.0" type="curve" smooth="yes"/>
      <point x="980.8" y="-22.0"/>
      <point x="1146.0" y="178.8"/>
      <point x="1146.0" y="530.6" type="curve" smooth="yes"/>
      <point x="1146.0" y="860.4"/>
      <point x="983.2" y="1054.4"/>
      <point x="694.8" y="1054.4" type="curve" smooth="yes"/>
      <point x="524.2" y="1054.4"/>
      <point x="373.6" y="975.0"/>
      <point x="299.6" y="843.2" type="curve"/>
      <point x="292.4" y="924.0"/>
      <point x="232.0" y="995.4"/>
      <point x="178.8" y="1032.4" type="curve"/>
      <point x="60.0" y="956.4" type="line"/>
      <point x="113.4" y="900.6"/>
      <point x="173.0" y="814.8"/>
      <point x="173.0" y="739.6" type="curve" smooth="yes"/>
    </contour>
    <contour>
      <point x="665.8" y="104.4" type="curve" smooth="yes"/>
      <point x="527.8" y="104.4"/>
      <point x="393.0" y="162.8"/>
      <point x="318.8" y="265.2" type="curve"/>
      <point x="318.8" y="437.4" type="line" smooth="yes"/>
      <point x="318.8" y="747.0"/>
      <point x="462.8" y="924.4"/>
      <point x="689.2" y="924.4" type="curve" smooth="yes"/>
      <point x="879.0" y="924.4"/>
      <point x="991.8" y="777.8"/>
      <point x="991.8" y="524.6" type="curve" smooth="yes"/>
      <point x="991.8" y="257.4"/>
      <point x="873.2" y="104.4"/>
    </contour>
  </outline>
</glyph>
<glyph name="q" format="1">
  <advance width="1208.0"/>
  <unicode hex="0071"/>
  <outline>
    <contour>
      <point x="1044.2" y="-497.0" type="curve" smooth="yes"/>
      <point x="1372.4" y="-323.8" type="line"/>
      <point x="1304.6" y="-215.2" type="line"/>
      <point x="1055.4" y="-349.2" type="line"/>
      <point x="1055.4" y="853.6" type="line" smooth="yes"/>
      <point x="1055.4" y="977.2"/>
      <point x="1071.0" y="1000.0"/>
      <point x="1077.0" y="1040.8" type="curve"/>
      <point x="916.0" y="1037.2" type="line"/>
      <point x="900.6" y="885.0" type="line"/>
      <point x="832.2" y="1001.4"/>
      <point x="756.4" y="1054.4"/>
      <point x="577.8" y="1054.4" type="curve" smooth="yes"/>
      <point x="265.6" y="1054.4"/>
      <point x="90.8" y="819.0"/>
      <point x="90.8" y="510.2" type="curve" smooth="yes"/>
      <point x="90.8" y="209.4"/>
      <point x="259.4" y="-22.0"/>
      <point x="568.4" y="-22.0" type="curve" smooth="yes"/>
      <point x="713.0" y="-22.0"/>
      <point x="830.4" y="35.8"/>
      <point x="908.4" y="130.6" type="curve"/>
      <point x="908.4" y="-388.0" type="line" smooth="yes"/>
      <point x="908.4" y="-512.8"/>
      <point x="1014.0" y="-513.0"/>
    </contour>
    <contour>
      <point x="583.6" y="104.2" type="curve" smooth="yes"/>
      <point x="349.4" y="104.2"/>
      <point x="245.0" y="281.0"/>
      <point x="245.0" y="510.2" type="curve" smooth="yes"/>
      <point x="245.0" y="746.2"/>
      <point x="338.2" y="924.4"/>
      <point x="578.0" y="924.4" type="curve" smooth="yes"/>
      <point x="813.2" y="924.4"/>
      <point x="917.0" y="755.6"/>
      <point x="908.4" y="509.2" type="curve" smooth="yes"/>
      <point x="908.4" y="256.2" type="line"/>
      <point x="847.2" y="199.0"/>
      <point x="709.2" y="104.2"/>
    </contour>
  </outline>
</glyph>
<glyph name="s" format="1">
  <advance width="880.8"/>
  <unicode hex="0073"/>
  <outline>
    <contour>
      <point x="456.0" y="-22.0" type="curve" smooth="yes"/>
      <point x="658.6" y="-22.0"/>
      <point x="796.0" y="97.4"/>
      <point x="800.8" y="269.2" type="curve" smooth="yes"/>
      <point x="805.6" y="427.0"/>
      <point x="660.9" y="507.6"/>
      <point x="544.4" y="567.65" type="curve" smooth="yes"/>
      <point x="410.3" y="633.3"/>
      <point x="255.8" y="682.0"/>
      <point x="255.8" y="783.8" type="curve" smooth="yes"/>
      <point x="255.8" y="871.0"/>
      <point x="331.2" y="922.0"/>
      <point x="449.4" y="922.0" type="curve" smooth="yes"/>
      <point x="530.4" y="922.0"/>
      <point x="628.8" y="892.8"/>
      <point x="721.2" y="842.8" type="curve"/>
      <point x="765.6" y="972.6" type="line"/>
      <point x="670.2" y="1022.4"/>
      <point x="562.8" y="1054.4"/>
      <point x="445.0" y="1054.4" type="curve" smooth="yes"/>
      <point x="254.2" y="1054.4"/>
      <point x="111.2" y="960.0"/>
      <point x="107.6" y="781.6" type="curve" smooth="yes"/>
      <point x="104.0" y="618.4"/>
      <point x="252.7" y="544.3"/>
      <point x="371.1" y="484.9" type="curve" smooth="yes"/>
      <point x="499.1" y="422.7"/>
      <point x="653.0" y="367.6"/>
      <point x="653.0" y="257.0" type="curve" smooth="yes"/>
      <point x="653.0" y="144.8"/>
      <point x="551.8" y="105.6"/>
      <point x="441.6" y="105.6" type="curve" smooth="yes"/>
      <point x="351.6" y="105.6"/>
      <point x="284.8" y="120.8"/>
      <point x="151.4" y="188.0" type="curve"/>
      <point x="101.8" y="62.2" type="line"/>
      <point x="178.4" y="19.6"/>
      <point x="303.6" y="-22.0"/>
    </contour>
  </outline>
</glyph>
<glyph name="u" format="1">
  <advance width="1176.4"/>
  <unicode hex="0075"/>
  <outline>
    <contour>
      <point x="518.4" y="-22.0" type="curve" smooth="yes"/>
      <point x="675.0" y="-22.0"/>
      <point x="790.6" y="38.6"/>
      <point x="871.2" y="162.0" type="curve"/>
      <point x="881.0" y="36.0"/>
      <point x="971.0" y="-38.8"/>
      <point x="1127.0" y="-2.8" type="curve"/>
      <point x="1139.2" y="123.8" type="line"/>
      <point x="1044.6" y="99.8"/>
      <point x="996.6" y="145.8"/>
      <point x="996.6" y="297.8" type="curve" smooth="yes"/>
      <point x="996.6" y="1032.0" type="line"/>
      <point x="849.4" y="1032.0" type="line"/>
      <point x="849.4" y="422.4" type="line" smooth="yes"/>
      <point x="849.4" y="223.6"/>
      <point x="704.4" y="105.2"/>
      <point x="539.4" y="105.2" type="curve" smooth="yes"/>
      <point x="418.2" y="105.2"/>
      <point x="285.2" y="151.8"/>
      <point x="290.6" y="361.8" type="curve" smooth="yes"/>
      <point x="296.8" y="598.6" type="line" smooth="yes"/>
      <point x="305.8" y="952.4"/>
      <point x="233.4" y="1032.0"/>
      <point x="233.4" y="1032.0" type="curve"/>
      <point x="85.2" y="1006.2" type="line"/>
      <point x="85.2" y="1006.2"/>
      <point x="157.6" y="912.4"/>
      <point x="148.6" y="585.6" type="curve" smooth="yes"/>
      <point x="142.2" y="367.2" type="line" smooth="yes"/>
      <point x="134.0" y="70.2"/>
      <point x="332.8" y="-22.0"/>
    </contour>
  </outline>
</glyph>
<glyph name="v" format="1">
  <advance width="1052.6"/>
  <unicode hex="0076"/>
  <outline>
    <contour>
      <point x="441.6" y="0.0" type="line"/>
      <point x="602.8" y="0.0" type="line"/>
      <point x="1038.6" y="1032.0" type="line"/>
      <point x="876.0" y="1032.0" type="line"/>
      <point x="588.6" y="306.4" type="line"/>
      <point x="576.6" y="279.6"/>
      <point x="563.4" y="232.0"/>
      <point x="532.4" y="130.6" type="curve"/>
      <point x="516.2" y="185.0"/>
      <point x="492.6" y="260.4"/>
      <point x="474.0" y="306.4" type="curve" smooth="yes"/>
      <point x="181.6" y="1032.0" type="line"/>
      <point x="14.0" y="1032.0" type="line"/>
    </contour>
  </outline>
</glyph>
<glyph name="w" format="1">
  <advance width="1692.0"/>
  <unicode hex="0077"/>
  <outline>
    <contour>
      <point x="386.8" y="0.0" type="line"/>
      <point x="540.6" y="0.0" type="line"/>
      <point x="856.2" y="880.8" type="line"/>
      <point x="1147.0" y="0.0" type="line"/>
      <point x="1298.4" y="0.0" type="line"/>
      <point x="1664.0" y="1032.0" type="line"/>
      <point x="1510.8" y="1032.0" type="line"/>
      <point x="1259.0" y="247.6" type="line"/>
      <point x="1247.0" y="214.8"/>
      <point x="1238.8" y="178.0"/>
      <point x="1229.0" y="161.8" type="curve"/>
      <point x="1220.2" y="187.4"/>
      <point x="1214.4" y="222.0"/>
      <point x="1205.6" y="246.4" type="curve" smooth="yes"/>
      <point x="938.8" y="1052.2" type="line"/>
      <point x="948.661580242" y="1025.57373335"/>
      <point x="779.900372698" y="1023.19673786"/>
      <point x="790.2" y="1053.2" type="curve"/>
      <point x="500.0" y="234.4" type="line"/>
      <point x="488.0" y="207.6"/>
      <point x="479.8" y="172.0"/>
      <point x="473.8" y="158.2" type="curve"/>
      <point x="464.8" y="185.0"/>
      <point x="459.0" y="218.4"/>
      <point x="450.2" y="244.0" type="curve" smooth="yes"/>
      <point x="188.4" y="1032.0" type="line"/>
      <point x="28.0" y="1032.0" type="line"/>
    </contour>
  </outline>
</glyph>
<glyph name="x" format="1">
  <advance width="1075.2"/>
  <unicode hex="0078"/>
  <outline>
    <contour>
      <point x="53.6" y="0.0" type="line"/>
      <point x="228.4" y="0.0" type="line"/>
      <point x="538.4" y="420.6" type="line"/>
      <point x="841.0" y="0.0" type="line"/>
      <point x="1021.6" y="0.0" type="line"/>
      <point x="630.2" y="520.8" type="line"/>
      <point x="1009.4" y="1032.0" type="line"/>
      <point x="850.4" y="1032.0" type="line"/>
      <point x="549.6" y="615.0" type="line"/>
      <point x="252.6" y="1032.0" type="line"/>
      <point x="67.4" y="1032.0" type="line"/>
      <point x="452.0" y="513.0" type="line"/>
    </contour>
  </outline>
</glyph>
<glyph name="bar" format="1">
  <advance width="423.8"/>
  <unicode hex="007C"/>
  <outline>
    <contour>
      <point x="132.0" y="-507.4" type="line"/>
      <point x="283.4" y="-507.4" type="line"/>
      <point x="283.4" y="1548.8" type="line"/>
      <point x="132.0" y="1548.8" type="line"/>
    </contour>
  </outline>
</glyph>
<glyph name="asciitilde" format="1">
  <advance width="1403.4"/>
  <unicode hex="007E"/>
  <outline>
    <contour>
      <point x="290.0" y="326.4" type="line"/>
      <point x="310.2" y="413.2"/>
      <point x="367.4" y="506.0"/>
      <point x="473.4" y="506.0" type="curve" smooth="yes"/>
      <point x="493.8" y="506.0"/>
      <point x="515.8" y="502.2"/>
      <point x="541.0" y="494.4" type="curve" smooth="yes"/>
      <point x="624.0" y="468.4"/>
      <point x="702.2" y="425.0"/>
      <point x="778.4" y="391.0" type="curve" smooth="yes"/>
      <point x="819.0" y="372.6"/>
      <point x="869.2" y="350.4"/>
      <point x="919.4" y="350.4" type="curve" smooth="yes"/>
      <point x="958.0" y="350.4"/>
      <point x="992.8" y="356.2"/>
      <point x="1024.6" y="369.8" type="curve" smooth="yes"/>
      <point x="1123.0" y="411.2"/>
      <point x="1181.8" y="501.2"/>
      <point x="1208.8" y="615.0" type="curve"/>
      <point x="1088.2" y="652.6" type="line"/>
      <point x="1069.8" y="573.4"/>
      <point x="1016.8" y="480.8"/>
      <point x="920.2" y="480.8" type="curve" smooth="yes"/>
      <point x="904.8" y="480.8"/>
      <point x="886.4" y="484.6"/>
      <point x="865.2" y="492.4" type="curve" smooth="yes"/>
      <point x="787.0" y="521.4"/>
      <point x="709.8" y="565.0"/>
      <point x="631.6" y="595.8" type="curve" smooth="yes"/>
      <point x="584.4" y="614.2"/>
      <point x="529.4" y="635.2"/>
      <point x="470.4" y="635.2" type="curve" smooth="yes"/>
      <point x="430.0" y="635.2"/>
      <point x="393.2" y="628.4"/>
      <point x="360.4" y="614.0" type="curve" smooth="yes"/>
      <point x="266.8" y="573.4"/>
      <point x="202.2" y="488.6"/>
      <point x="179.0" y="379.6" type="curve"/>
    </contour>
  </outline>
</glyph>
<glyph name="sterling" format="1">
  <advance width="1008.0"/>
  <unicode hex="00A3"/>
  <outline>
    <contour>
      <point x="97.6" y="0.0" type="line"/>
      <point x="1030.0" y="0.0" type="line"/>
      <point x="1030.0" y="136.0" type="line"/>
      <point x="343.8" y="136.0" type="line"/>
      <point x="359.2" y="148.6"/>
      <point x="372.6" y="165.2"/>
      <point x="383.2" y="187.2" type="curve" smooth="yes"/>
      <point x="436.4" y="294.2"/>
      <point x="438.4" y="459.6"/>
      <point x="438.4" y="618.8" type="curve" smooth="yes"/>
      <point x="438.4" y="666.0" type="line"/>
      <point x="756.8" y="666.0" type="line"/>
      <point x="756.8" y="803.0" type="line"/>
      <point x="436.4" y="803.0" type="line"/>
      <point x="433.4" y="914.0" type="line"/>
      <point x="433.4" y="1115.8"/>
      <point x="496.2" y="1261.4"/>
      <point x="697.0" y="1261.4" type="curve" smooth="yes"/>
      <point x="804.0" y="1261.4"/>
      <point x="894.0" y="1235.4"/>
      <point x="961.6" y="1193.8" type="curve"/>
      <point x="1011.6" y="1309.6" type="line"/>
      <point x="937.4" y="1368.6"/>
      <point x="832.0" y="1397.6"/>
      <point x="694.2" y="1397.6" type="curve" smooth="yes"/>
      <point x="353.6" y="1397.6"/>
      <point x="270.4" y="1169.0"/>
      <point x="270.4" y="831.2" type="curve" smooth="yes"/>
      <point x="270.4" y="821.4"/>
      <point x="271.4" y="812.8"/>
      <point x="272.2" y="803.0" type="curve"/>
      <point x="96.8" y="803.0" type="line"/>
      <point x="96.8" y="666.0" type="line"/>
      <point x="273.4" y="666.0" type="line"/>
      <point x="273.4" y="424.6" type="line" smooth="yes"/>
      <point x="273.4" y="262.6"/>
      <point x="197.2" y="192.0"/>
      <point x="96.8" y="133.0" type="curve"/>
    </contour>
  </outline>
</glyph>
<glyph name="currency" format="1">
  <advance width="1234.4"/>
  <unicode hex="00A4"/>
  <outline>
    <contour>
      <point x="159.4" y="165.4" type="line"/>
      <point x="316.0" y="327.6" type="line"/>
      <point x="381.6" y="274.6"/>
      <point x="464.4" y="241.6"/>
      <point x="554.2" y="241.6" type="curve" smooth="yes"/>
      <point x="650.8" y="241.6"/>
      <point x="739.8" y="276.2"/>
      <point x="806.4" y="335.2" type="curve"/>
      <point x="967.2" y="179.8" type="line"/>
      <point x="1003.0" y="214.6" type="line"/>
      <point x="840.8" y="371.0" type="line"/>
      <point x="895.8" y="433.6"/>
      <point x="929.8" y="514.6"/>
      <point x="931.6" y="605.4" type="curve" smooth="yes"/>
      <point x="933.4" y="704.0"/>
      <point x="898.0" y="793.6"/>
      <point x="836.2" y="862.2" type="curve"/>
      <point x="988.4" y="1020.4" type="line"/>
      <point x="950.0" y="1058.2" type="line"/>
      <point x="797.4" y="900.0" type="line"/>
      <point x="733.6" y="954.2"/>
      <point x="652.6" y="986.8"/>
      <point x="563.8" y="988.6" type="curve" smooth="yes"/>
      <point x="466.2" y="990.4"/>
      <point x="373.6" y="952.8"/>
      <point x="304.2" y="891.2" type="curve"/>
      <point x="148.0" y="1042.8" type="line"/>
      <point x="110.2" y="1005.0" type="line"/>
      <point x="267.6" y="853.6" type="line"/>
      <point x="211.6" y="787.8"/>
      <point x="177.0" y="704.8"/>
      <point x="177.0" y="615.0" type="curve" smooth="yes"/>
      <point x="177.0" y="516.4"/>
      <point x="216.6" y="428.0"/>
      <point x="279.2" y="361.4" type="curve"/>
      <point x="124.6" y="201.0" type="line"/>
    </contour>
    <contour>
      <point x="552.4" y="316.0" type="curve" smooth="yes"/>
      <point x="389.2" y="316.0"/>
      <point x="261.6" y="449.2"/>
      <point x="261.6" y="612.0" type="curve" smooth="yes"/>
      <point x="261.6" y="775.2"/>
      <point x="397.0" y="912.4"/>
      <point x="560.0" y="908.6" type="curve" smooth="yes"/>
      <point x="722.0" y="904.6"/>
      <point x="846.8" y="768.6"/>
      <point x="842.8" y="605.4" type="curve" smooth="yes"/>
      <point x="839.0" y="442.4"/>
      <point x="715.4" y="316.0"/>
    </contour>
  </outline>
</glyph>
<glyph name="section" format="1">
  <advance width="930.0"/>
  <unicode hex="00A7"/>
  <outline>
    <contour>
      <point x="443.6" y="-40.8" type="curve" smooth="yes"/>
      <point x="552.6" y="-40.8"/>
      <point x="650.2" y="-11.8"/>
      <point x="716.6" y="34.6" type="curve" smooth="yes"/>
      <point x="780.4" y="79.0"/>
      <point x="835.2" y="146.6"/>
      <point x="835.2" y="249.0" type="curve" smooth="yes"/>
      <point x="835.2" y="370.6"/>
      <point x="760.0" y="427.4"/>
      <point x="678.0" y="468.8" type="curve"/>
      <point x="758.0" y="518.2"/>
      <point x="857.6" y="590.4"/>
      <point x="857.6" y="717.0" type="curve" smooth="yes"/>
      <point x="857.6" y="750.8"/>
      <point x="848.8" y="781.6"/>
      <point x="833.4" y="808.6" type="curve" smooth="yes"/>
      <point x="762.0" y="929.2"/>
      <point x="592.0" y="971.6"/>
      <point x="466.6" y="1040.2" type="curve" smooth="yes"/>
      <point x="410.6" y="1071.0"/>
      <point x="357.6" y="1105.8"/>
      <point x="357.6" y="1184.0" type="curve" smooth="yes"/>
      <point x="357.6" y="1287.2"/>
      <point x="459.8" y="1314.4"/>
      <point x="565.2" y="1314.4" type="curve" smooth="yes"/>
      <point x="646.2" y="1314.4"/>
      <point x="725.4" y="1291.2"/>
      <point x="783.2" y="1264.2" type="curve"/>
      <point x="781.4" y="1407.0" type="line"/>
      <point x="709.0" y="1429.2"/>
      <point x="650.2" y="1446.6"/>
      <point x="560.2" y="1446.6" type="curve" smooth="yes"/>
      <point x="367.4" y="1446.6"/>
      <point x="191.6" y="1372.2"/>
      <point x="191.6" y="1180.2" type="curve" smooth="yes"/>
      <point x="191.6" y="1057.8"/>
      <point x="257.2" y="997.0"/>
      <point x="339.2" y="946.6" type="curve"/>
      <point x="254.2" y="904.2"/>
      <point x="156.8" y="834.8"/>
      <point x="156.8" y="709.2" type="curve" smooth="yes"/>
      <point x="156.8" y="678.4"/>
      <point x="162.6" y="649.4"/>
      <point x="173.2" y="623.4" type="curve" smooth="yes"/>
      <point x="209.8" y="533.6"/>
      <point x="293.8" y="482.4"/>
      <point x="384.6" y="443.8" type="curve" smooth="yes"/>
      <point x="465.6" y="409.0" type="line" smooth="yes"/>
      <point x="497.4" y="395.4"/>
      <point x="526.4" y="383.0"/>
      <point x="551.4" y="371.4" type="curve" smooth="yes"/>
      <point x="607.6" y="345.4"/>
      <point x="668.4" y="316.4"/>
      <point x="668.4" y="240.2" type="curve" smooth="yes"/>
      <point x="668.4" y="219.0"/>
      <point x="663.4" y="199.6"/>
      <point x="652.8" y="181.2" type="curve" smooth="yes"/>
      <point x="618.0" y="120.4"/>
      <point x="536.0" y="91.4"/>
      <point x="438.6" y="91.4" type="curve" smooth="yes"/>
      <point x="338.2" y="91.4"/>
      <point x="261.2" y="117.6"/>
      <point x="181.0" y="153.4" type="curve"/>
      <point x="182.8" y="9.4" type="line"/>
      <point x="256.2" y="-20.6"/>
      <point x="345.2" y="-40.8"/>
    </contour>
    <contour>
      <point x="548.8" y="533.6" type="curve"/>
      <point x="516.0" y="547.2"/>
      <point x="486.0" y="559.6"/>
      <point x="459.0" y="572.2" type="curve" smooth="yes"/>
      <point x="397.2" y="600.2"/>
      <point x="327.8" y="635.8"/>
      <point x="327.8" y="720.8" type="curve" smooth="yes"/>
      <point x="327.8" y="807.6"/>
      <point x="398.2" y="855.0"/>
      <point x="456.0" y="885.8" type="curve"/>
      <point x="533.0" y="843.4"/>
      <point x="685.8" y="822.2"/>
      <point x="685.8" y="703.4" type="curve" smooth="yes"/>
      <point x="685.8" y="684.2"/>
      <point x="681.8" y="666.6"/>
      <point x="673.0" y="650.4" type="curve" smooth="yes"/>
      <point x="647.2" y="599.2"/>
      <point x="596.0" y="563.4"/>
    </contour>
  </outline>
</glyph>
<glyph name="dieresis" format="1">
  <advance width="630.0"/>
  <unicode hex="00A8"/>
  <outline>
    <contour>
      <point x="85.2" y="1182.2" type="line"/>
      <point x="229.4" y="1182.2" type="line"/>
      <point x="229.4" y="1325.6" type="line"/>
      <point x="85.2" y="1325.6" type="line"/>
    </contour>
    <contour>
      <point x="394.6" y="1182.2" type="line"/>
      <point x="538.8" y="1182.2" type="line"/>
      <point x="538.8" y="1325.6" type="line"/>
      <point x="394.6" y="1325.6" type="line"/>
    </contour>
  </outline>
</glyph>
<glyph name="copyright" format="1">
  <advance width="1758.2"/>
  <unicode hex="00A9"/>
  <outline>
    <contour>
      <point x="902.6" y="260.8" type="curve" smooth="yes"/>
      <point x="1018.4" y="260.8"/>
      <point x="1117.8" y="289.8"/>
      <point x="1200.8" y="347.6" type="curve"/>
      <point x="1163.2" y="464.4" type="line"/>
      <point x="1105.4" y="417.2"/>
      <point x="1030.8" y="387.2"/>
      <point x="933.4" y="387.2" type="curve" smooth="yes"/>
      <point x="876.6" y="387.2"/>
      <point x="826.4" y="396.8"/>
      <point x="783.0" y="414.2" type="curve" smooth="yes"/>
      <point x="666.2" y="462.6"/>
      <point x="587.0" y="566.6"/>
      <point x="587.0" y="727.8" type="curve" smooth="yes"/>
      <point x="587.0" y="774.2"/>
      <point x="594.6" y="817.6"/>
      <point x="609.0" y="858.2" type="curve" smooth="yes"/>
      <point x="651.4" y="975.0"/>
      <point x="750.0" y="1062.6"/>
      <point x="906.4" y="1062.6" type="curve" smooth="yes"/>
      <point x="1009.6" y="1062.6"/>
      <point x="1096.6" y="1031.8"/>
      <point x="1167.0" y="971.0" type="curve"/>
      <point x="1197.0" y="1086.8" type="line"/>
      <point x="1118.8" y="1153.4"/>
      <point x="1024.2" y="1186.4"/>
      <point x="913.2" y="1186.4" type="curve" smooth="yes"/>
      <point x="841.8" y="1186.4"/>
      <point x="777.0" y="1174.8"/>
      <point x="719.2" y="1151.6" type="curve" smooth="yes"/>
      <point x="558.0" y="1087.8"/>
      <point x="439.4" y="946.0"/>
      <point x="439.4" y="724.0" type="curve" smooth="yes"/>
      <point x="439.4" y="659.2"/>
      <point x="450.8" y="599.6"/>
      <point x="474.0" y="543.6" type="curve" smooth="yes"/>
      <point x="538.8" y="385.4"/>
      <point x="683.6" y="260.8"/>
    </contour>
    <contour>
      <point x="877.6" y="-10.4" type="curve" smooth="yes"/>
      <point x="1118.0" y="-10.4"/>
      <point x="1296.4" y="85.2"/>
      <point x="1423.8" y="205.8" type="curve" smooth="yes"/>
      <point x="1547.4" y="322.6"/>
      <point x="1652.6" y="488.6"/>
      <point x="1652.6" y="720.2" type="curve" smooth="yes"/>
      <point x="1652.6" y="786.8"/>
      <point x="1643.0" y="850.4"/>
      <point x="1624.6" y="912.2" type="curve" smooth="yes"/>
      <point x="1585.0" y="1042.4"/>
      <point x="1513.6" y="1149.6"/>
      <point x="1423.8" y="1234.6" type="curve" smooth="yes"/>
      <point x="1295.4" y="1355.2"/>
      <point x="1114.8" y="1451.6"/>
      <point x="871.6" y="1451.6" type="curve" smooth="yes"/>
      <point x="631.2" y="1451.6"/>
      <point x="452.6" y="1357.2"/>
      <point x="324.4" y="1236.6" type="curve" smooth="yes"/>
      <point x="200.8" y="1119.8"/>
      <point x="94.8" y="953.8"/>
      <point x="94.8" y="721.2" type="curve" smooth="yes"/>
      <point x="94.8" y="654.6"/>
      <point x="104.4" y="589.8"/>
      <point x="122.8" y="528.0" type="curve" smooth="yes"/>
      <point x="162.4" y="397.6"/>
      <point x="232.8" y="290.8"/>
      <point x="323.6" y="205.8" type="curve" smooth="yes"/>
      <point x="451.8" y="85.2"/>
      <point x="634.4" y="-10.4"/>
    </contour>
    <contour>
      <point x="876.4" y="102.4" type="curve" smooth="yes"/>
      <point x="675.6" y="102.4"/>
      <point x="514.4" y="178.8"/>
      <point x="406.4" y="281.0" type="curve" smooth="yes"/>
      <point x="301.2" y="380.6"/>
      <point x="217.4" y="529.2"/>
      <point x="217.4" y="722.0" type="curve" smooth="yes"/>
      <point x="217.4" y="914.2"/>
      <point x="301.2" y="1062.8"/>
      <point x="406.4" y="1161.2" type="curve" smooth="yes"/>
      <point x="513.4" y="1261.6"/>
      <point x="674.0" y="1338.8"/>
      <point x="872.6" y="1338.8" type="curve" smooth="yes"/>
      <point x="1072.4" y="1338.8"/>
      <point x="1233.6" y="1260.4"/>
      <point x="1340.6" y="1159.2" type="curve" smooth="yes"/>
      <point x="1446.0" y="1059.6"/>
      <point x="1530.0" y="912.2"/>
      <point x="1530.0" y="719.0" type="curve" smooth="yes"/>
      <point x="1530.0" y="527.0"/>
      <point x="1446.2" y="379.4"/>
      <point x="1341.8" y="281.0" type="curve" smooth="yes"/>
      <point x="1234.6" y="179.8"/>
      <point x="1076.2" y="102.4"/>
    </contour>
  </outline>
</glyph>
<glyph name="ordfeminine" format="1">
  <advance width="687.2"/>
  <unicode hex="00AA"/>
  <outline>
    <contour>
      <point x="290.8" y="794.4" type="curve" smooth="yes"/>
      <point x="387.4" y="794.4"/>
      <point x="459.6" y="830.2"/>
      <point x="503.2" y="883.4" type="curve"/>
      <point x="509.0" y="811.8" type="line"/>
      <point x="635.4" y="811.8" type="line"/>
      <point x="630.6" y="869.6"/>
      <point x="628.6" y="893.0"/>
      <point x="628.6" y="935.4" type="curve" smooth="yes"/>
      <point x="630.6" y="1245.2" type="line"/>
      <point x="630.6" y="1404.4"/>
      <point x="523.4" y="1478.8"/>
      <point x="365.2" y="1478.8" type="curve" smooth="yes"/>
      <point x="237.8" y="1478.8"/>
      <point x="141.2" y="1439.2"/>
      <point x="92.0" y="1356.2" type="curve"/>
      <point x="156.6" y="1283.8" type="line"/>
      <point x="199.0" y="1346.4"/>
      <point x="263.8" y="1374.4"/>
      <point x="359.4" y="1374.4" type="curve" smooth="yes"/>
      <point x="465.6" y="1374.4"/>
      <point x="502.2" y="1335.8"/>
      <point x="502.2" y="1229.6" type="curve" smooth="yes"/>
      <point x="502.2" y="1222.0" type="line"/>
      <point x="430.8" y="1212.4"/>
      <point x="354.4" y="1213.2"/>
      <point x="283.0" y="1203.6" type="curve"/>
      <point x="167.2" y="1186.4"/>
      <point x="48.6" y="1126.6"/>
      <point x="48.6" y="994.2" type="curve" smooth="yes"/>
      <point x="48.6" y="964.4"/>
      <point x="54.4" y="937.4"/>
      <point x="67.0" y="912.2" type="curve" smooth="yes"/>
      <point x="102.6" y="838.8"/>
      <point x="182.8" y="794.4"/>
    </contour>
    <contour>
      <point x="311.2" y="893.8" type="curve" smooth="yes"/>
      <point x="235.8" y="893.8"/>
      <point x="179.8" y="920.8"/>
      <point x="179.8" y="996.2" type="curve" smooth="yes"/>
      <point x="179.8" y="1129.2"/>
      <point x="394.2" y="1103.4"/>
      <point x="502.2" y="1124.6" type="curve"/>
      <point x="502.2" y="1100.4" type="line"/>
      <point x="496.6" y="981.6"/>
      <point x="436.6" y="893.8"/>
    </contour>
  </outline>
</glyph>
<glyph name="registered" format="1">
  <advance width="1758.2"/>
  <unicode hex="00AE"/>
  <outline>
    <contour>
      <point x="571.4" y="283.4" type="line"/>
      <point x="714.2" y="283.4" type="line"/>
      <point x="714.2" y="660.8" type="line"/>
      <point x="846.6" y="660.8" type="line"/>
      <point x="905.4" y="623.2"/>
      <point x="948.0" y="557.6"/>
      <point x="988.6" y="488.2" type="curve" smooth="yes"/>
      <point x="1107.2" y="283.4" type="line"/>
      <point x="1269.4" y="283.4" type="line"/>
      <point x="1237.4" y="335.4"/>
      <point x="1209.4" y="382.0"/>
      <point x="1183.4" y="423.4" type="curve" smooth="yes"/>
      <point x="1124.4" y="517.0"/>
      <point x="1069.6" y="607.8"/>
      <point x="995.2" y="677.2" type="curve"/>
      <point x="1136.2" y="695.6"/>
      <point x="1251.0" y="768.0"/>
      <point x="1251.0" y="922.4" type="curve" smooth="yes"/>
      <point x="1251.0" y="1002.6"/>
      <point x="1217.2" y="1064.4"/>
      <point x="1148.6" y="1106.8" type="curve" smooth="yes"/>
      <point x="1080.0" y="1149.2"/>
      <point x="975.8" y="1170.6"/>
      <point x="835.0" y="1170.6" type="curve" smooth="yes"/>
      <point x="571.4" y="1170.6" type="line"/>
    </contour>
    <contour>
      <point x="877.6" y="-10.8" type="curve" smooth="yes"/>
      <point x="1118.0" y="-10.8"/>
      <point x="1296.4" y="84.8"/>
      <point x="1423.8" y="205.4" type="curve" smooth="yes"/>
      <point x="1547.4" y="322.2"/>
      <point x="1652.6" y="488.2"/>
      <point x="1652.6" y="719.8" type="curve" smooth="yes"/>
      <point x="1652.6" y="786.4"/>
      <point x="1643.0" y="850.0"/>
      <point x="1624.6" y="911.8" type="curve" smooth="yes"/>
      <point x="1585.0" y="1042.0"/>
      <point x="1513.6" y="1149.2"/>
      <point x="1423.8" y="1234.2" type="curve" smooth="yes"/>
      <point x="1295.4" y="1354.8"/>
      <point x="1114.8" y="1451.2"/>
      <point x="871.6" y="1451.2" type="curve" smooth="yes"/>
      <point x="631.2" y="1451.2"/>
      <point x="452.6" y="1356.8"/>
      <point x="324.4" y="1236.2" type="curve" smooth="yes"/>
      <point x="200.8" y="1119.4"/>
      <point x="94.8" y="953.4"/>
      <point x="94.8" y="720.8" type="curve" smooth="yes"/>
      <point x="94.8" y="654.2"/>
      <point x="104.4" y="589.4"/>
      <point x="122.8" y="527.6" type="curve" smooth="yes"/>
      <point x="162.4" y="397.2"/>
      <point x="232.8" y="290.4"/>
      <point x="323.6" y="205.4" type="curve" smooth="yes"/>
      <point x="451.8" y="84.8"/>
      <point x="634.4" y="-10.8"/>
    </contour>
    <contour>
      <point x="876.4" y="102.0" type="curve" smooth="yes"/>
      <point x="675.6" y="102.0"/>
      <point x="514.4" y="178.4"/>
      <point x="406.4" y="280.6" type="curve" smooth="yes"/>
      <point x="301.2" y="380.2"/>
      <point x="217.4" y="528.8"/>
      <point x="217.4" y="721.6" type="curve" smooth="yes"/>
      <point x="217.4" y="913.8"/>
      <point x="301.2" y="1061.4"/>
      <point x="406.4" y="1160.8" type="curve" smooth="yes"/>
      <point x="513.4" y="1262.2"/>
      <point x="674.0" y="1338.4"/>
      <point x="872.6" y="1338.4" type="curve" smooth="yes"/>
      <point x="1072.4" y="1338.4"/>
      <point x="1233.6" y="1260.0"/>
      <point x="1340.6" y="1158.8" type="curve" smooth="yes"/>
      <point x="1446.0" y="1059.2"/>
      <point x="1530.0" y="911.8"/>
      <point x="1530.0" y="718.6" type="curve" smooth="yes"/>
      <point x="1530.0" y="520.8"/>
      <point x="1448.0" y="379.0"/>
      <point x="1342.8" y="280.6" type="curve" smooth="yes"/>
      <point x="1234.6" y="179.4"/>
      <point x="1082.0" y="102.0"/>
    </contour>
    <contour>
      <point x="712.4" y="775.8" type="line"/>
      <point x="711.4" y="1054.8" type="line"/>
      <point x="831.0" y="1054.8" type="line" smooth="yes"/>
      <point x="978.6" y="1054.8"/>
      <point x="1101.4" y="1053.8"/>
      <point x="1101.4" y="908.0" type="curve" smooth="yes"/>
      <point x="1101.4" y="776.6"/>
      <point x="966.2" y="775.8"/>
      <point x="833.0" y="775.8" type="curve" smooth="yes"/>
    </contour>
  </outline>
</glyph>
<glyph name="macron" format="1">
  <advance width="617.2"/>
  <unicode hex="00AF"/>
  <outline>
    <contour>
      <point x="67.0" y="1002.8" type="line"/>
      <point x="619.0" y="1002.8" type="line"/>
      <point x="619.0" y="1132.2" type="line"/>
      <point x="67.0" y="1132.2" type="line"/>
    </contour>
  </outline>
</glyph>
<glyph name="plusminus" format="1">
  <advance width="1236.2"/>
  <unicode hex="00B1"/>
  <outline>
    <contour>
      <point x="602.4" y="215.2" type="line"/>
      <point x="748.2" y="215.2" type="line"/>
      <point x="748.2" y="574.2" type="line"/>
      <point x="1179.6" y="574.2" type="line"/>
      <point x="1179.6" y="707.4" type="line"/>
      <point x="744.4" y="707.4" type="line"/>
      <point x="744.4" y="1068.6" type="line"/>
      <point x="600.4" y="1068.6" type="line"/>
      <point x="600.4" y="707.4" type="line"/>
      <point x="159.4" y="707.4" type="line"/>
      <point x="170.8" y="574.2" type="line"/>
      <point x="602.4" y="574.2" type="line"/>
    </contour>
    <contour>
      <point x="170.8" y="0.0" type="line"/>
      <point x="1183.4" y="0.0" type="line"/>
      <point x="1183.4" y="133.0" type="line"/>
      <point x="170.8" y="133.0" type="line"/>
    </contour>
  </outline>
</glyph>
<glyph name="uni00B3" format="1">
  <advance width="1009.0"/>
  <unicode hex="00B3"/>
  <outline>
    <contour>
      <point x="436.6" y="496.8" type="curve" smooth="yes"/>
      <point x="475.2" y="496.8"/>
      <point x="512.8" y="502.6"/>
      <point x="547.6" y="513.2" type="curve" smooth="yes"/>
      <point x="642.2" y="543.2"/>
      <point x="725.2" y="614.4"/>
      <point x="725.2" y="736.0" type="curve" smooth="yes"/>
      <point x="725.2" y="835.6"/>
      <point x="673.0" y="895.4"/>
      <point x="601.8" y="927.2" type="curve"/>
      <point x="661.6" y="959.0"/>
      <point x="705.0" y="1016.0"/>
      <point x="705.0" y="1102.0" type="curve" smooth="yes"/>
      <point x="705.0" y="1137.6"/>
      <point x="697.2" y="1168.4"/>
      <point x="682.8" y="1195.4" type="curve" smooth="yes"/>
      <point x="642.2" y="1270.8"/>
      <point x="557.2" y="1322.0"/>
      <point x="442.4" y="1322.0" type="curve" smooth="yes"/>
      <point x="342.0" y="1322.0"/>
      <point x="252.4" y="1276.6"/>
      <point x="199.2" y="1224.6" type="curve"/>
      <point x="255.2" y="1131.8" type="line"/>
      <point x="302.4" y="1170.6"/>
      <point x="361.4" y="1207.2"/>
      <point x="440.6" y="1207.2" type="curve" smooth="yes"/>
      <point x="518.8" y="1207.2"/>
      <point x="576.6" y="1177.2"/>
      <point x="576.6" y="1099.0" type="curve" smooth="yes"/>
      <point x="576.6" y="1002.6"/>
      <point x="483.8" y="982.2"/>
      <point x="386.4" y="982.2" type="curve" smooth="yes"/>
      <point x="339.2" y="982.2" type="line"/>
      <point x="339.2" y="867.2" type="line"/>
      <point x="364.4" y="867.2" type="line" smooth="yes"/>
      <point x="375.2" y="867.2"/>
      <point x="384.8" y="868.4"/>
      <point x="393.2" y="868.4" type="curve" smooth="yes"/>
      <point x="502.4" y="868.4"/>
      <point x="600.8" y="846.0"/>
      <point x="600.8" y="739.0" type="curve" smooth="yes"/>
      <point x="600.8" y="650.2"/>
      <point x="522.6" y="607.8"/>
      <point x="431.8" y="607.8" type="curve" smooth="yes"/>
      <point x="369.0" y="607.8"/>
      <point x="311.2" y="632.8"/>
      <point x="257.2" y="683.2" type="curve"/>
      <point x="199.2" y="590.4" type="line"/>
      <point x="254.2" y="535.4"/>
      <point x="333.4" y="496.8"/>
    </contour>
  </outline>
</glyph>
<glyph name="paragraph" format="1">
  <advance width="1029.4"/>
  <unicode hex="00B6"/>
  <outline>
    <contour>
      <point x="414.2" y="-125.4" type="line"/>
      <point x="552.0" y="-125.4" type="line"/>
      <point x="552.0" y="1298.2" type="line"/>
      <point x="752.8" y="1298.2" type="line"/>
      <point x="752.8" y="-125.4" type="line"/>
      <point x="877.2" y="-125.4" type="line"/>
      <point x="877.2" y="1298.2" type="line"/>
      <point x="961.4" y="1298.2" type="line"/>
      <point x="961.4" y="1417.8" type="line"/>
      <point x="588.6" y="1417.8" type="line" smooth="yes"/>
      <point x="333.8" y="1417.8"/>
      <point x="90.8" y="1362.8"/>
      <point x="90.8" y="1108.0" type="curve" smooth="yes"/>
      <point x="90.8" y="1058.8"/>
      <point x="99.4" y="1013.4"/>
      <point x="116.8" y="972.8" type="curve" smooth="yes"/>
      <point x="163.0" y="863.8"/>
      <point x="263.4" y="777.8"/>
      <point x="414.2" y="776.0" type="curve"/>
    </contour>
  </outline>
</glyph>
<glyph name="periodcentered" format="1">
  <advance width="376.6"/>
  <unicode hex="00B7"/>
  <outline>
    <contour>
      <point x="64.4" y="434.8" type="line"/>
      <point x="273.8" y="434.8" type="line"/>
      <point x="273.8" y="637.4" type="line"/>
      <point x="64.4" y="637.4" type="line"/>
    </contour>
  </outline>
</glyph>
<glyph name="cedilla" format="1">
  <advance width="448.6"/>
  <unicode hex="00B8"/>
  <outline>
    <contour>
      <point x="213.0" y="-335.8" type="curve" smooth="yes"/>
      <point x="329.6" y="-335.8"/>
      <point x="445.6" y="-300.0"/>
      <point x="445.6" y="-184.2" type="curve" smooth="yes"/>
      <point x="445.6" y="-79.8"/>
      <point x="353.0" y="-45.2"/>
      <point x="252.6" y="-40.4" type="curve"/>
      <point x="243.8" y="-40.4" type="line"/>
      <point x="261.4" y="62.8" type="line"/>
      <point x="167.6" y="62.8" type="line"/>
      <point x="135.8" y="-120.6" type="line"/>
      <point x="166.6" y="-118.6" type="line" smooth="yes"/>
      <point x="177.2" y="-117.8"/>
      <point x="193.6" y="-115.6"/>
      <point x="202.4" y="-115.6" type="curve" smooth="yes"/>
      <point x="260.2" y="-115.6"/>
      <point x="307.6" y="-129.2"/>
      <point x="307.6" y="-186.0" type="curve" smooth="yes"/>
      <point x="307.6" y="-240.2"/>
      <point x="261.4" y="-255.6"/>
      <point x="197.6" y="-255.6" type="curve" smooth="yes"/>
      <point x="145.4" y="-255.6"/>
      <point x="100.2" y="-244.0"/>
      <point x="51.8" y="-232.4" type="curve"/>
      <point x="44.2" y="-314.4" type="line"/>
      <point x="96.2" y="-325.0"/>
      <point x="155.2" y="-335.8"/>
    </contour>
  </outline>
</glyph>
<glyph name="uni00B9" format="1">
  <advance width="1009.0"/>
  <unicode hex="00B9"/>
  <outline>
    <contour>
      <point x="232.4" y="512.0" type="line"/>
      <point x="584.8" y="512.0" type="line"/>
      <point x="584.8" y="623.8" type="line"/>
      <point x="467.0" y="623.8" type="line"/>
      <point x="467.0" y="1306.4" type="line"/>
      <point x="365.8" y="1292.0" type="line"/>
      <point x="315.6" y="1262.0"/>
      <point x="268.4" y="1235.8"/>
      <point x="203.6" y="1215.6" type="curve"/>
      <point x="202.6" y="1090.2" type="line"/>
      <point x="250.8" y="1108.6"/>
      <point x="307.0" y="1133.8"/>
      <point x="349.4" y="1155.8" type="curve"/>
      <point x="349.4" y="1056.4" type="line" smooth="yes"/>
      <point x="349.4" y="1006.2"/>
      <point x="350.4" y="958.8"/>
      <point x="350.4" y="902.0" type="curve" smooth="yes"/>
      <point x="350.4" y="626.8" type="line"/>
      <point x="232.4" y="626.8" type="line"/>
    </contour>
  </outline>
</glyph>
<glyph name="ordmasculine" format="1">
  <advance width="698.6"/>
  <unicode hex="00BA"/>
  <outline>
    <contour>
      <point x="395.4" y="650.2" type="curve" smooth="yes"/>
      <point x="451.2" y="650.2"/>
      <point x="501.6" y="658.8"/>
      <point x="544.0" y="677.2" type="curve" smooth="yes"/>
      <point x="659.8" y="725.4"/>
      <point x="740.8" y="830.8"/>
      <point x="740.8" y="992.0" type="curve" smooth="yes"/>
      <point x="740.8" y="1040.4"/>
      <point x="733.2" y="1084.6"/>
      <point x="718.6" y="1126.0" type="curve" smooth="yes"/>
      <point x="674.2" y="1251.4"/>
      <point x="564.2" y="1334.4"/>
      <point x="394.2" y="1334.4" type="curve" smooth="yes"/>
      <point x="338.2" y="1334.4"/>
      <point x="289.2" y="1324.8"/>
      <point x="245.6" y="1307.4" type="curve" smooth="yes"/>
      <point x="128.8" y="1259.2"/>
      <point x="44.8" y="1156.0"/>
      <point x="44.8" y="994.8" type="curve" smooth="yes"/>
      <point x="44.8" y="779.4"/>
      <point x="178.2" y="650.2"/>
    </contour>
    <contour>
      <point x="395.4" y="754.6" type="curve" smooth="yes"/>
      <point x="253.4" y="754.6"/>
      <point x="180.0" y="852.8"/>
      <point x="180.0" y="993.8" type="curve" smooth="yes"/>
      <point x="180.0" y="1129.8"/>
      <point x="255.4" y="1231.2"/>
      <point x="392.4" y="1231.2" type="curve" smooth="yes"/>
      <point x="532.4" y="1231.2"/>
      <point x="607.6" y="1129.8"/>
      <point x="607.6" y="989.8" type="curve" smooth="yes"/>
      <point x="607.6" y="854.8"/>
      <point x="531.4" y="754.6"/>
    </contour>
  </outline>
</glyph>
<glyph name="onequarter" format="1">
  <advance width="2081.2"/>
  <unicode hex="00BC"/>
  <outline>
    <contour>
      <point x="-285.8" y="0.0" type="line"/>
      <point x="-140.0" y="0.0" type="line"/>
      <point x="625.4" y="1218.0" type="line"/>
      <point x="625.4" y="1161.0" type="line"/>
      <point x="673.8" y="1179.4"/>
      <point x="729.8" y="1204.6"/>
      <point x="772.2" y="1226.8" type="curve"/>
      <point x="772.2" y="1127.2" type="line" smooth="yes"/>
      <point x="772.2" y="1077.0"/>
      <point x="773.2" y="1029.8"/>
      <point x="773.2" y="973.0" type="curve" smooth="yes"/>
      <point x="773.2" y="697.8" type="line"/>
      <point x="655.4" y="697.8" type="line"/>
      <point x="655.4" y="582.8" type="line"/>
      <point x="1007.6" y="582.8" type="line"/>
      <point x="1007.6" y="695.0" type="line"/>
      <point x="889.8" y="695.0" type="line"/>
      <point x="889.8" y="1377.4" type="line"/>
      <point x="788.6" y="1362.8" type="line"/>
      <point x="753.6" y="1342.8"/>
      <point x="719.8" y="1323.2"/>
      <point x="681.2" y="1306.8" type="curve"/>
      <point x="731.6" y="1386.0" type="line"/>
      <point x="587.8" y="1386.0" type="line"/>
    </contour>
    <contour>
      <point x="1887.0" y="593.6" type="line"/>
      <point x="2002.8" y="593.6" type="line"/>
      <point x="2002.8" y="775.0" type="line"/>
      <point x="2119.6" y="775.0" type="line"/>
      <point x="2109.8" y="878.2" type="line"/>
      <point x="2004.6" y="878.2" type="line"/>
      <point x="2004.6" y="1362.8" type="line"/>
      <point x="1875.2" y="1362.8" type="line"/>
      <point x="1522.0" y="862.8" type="line"/>
      <point x="1522.0" y="775.0" type="line"/>
      <point x="1887.0" y="775.0" type="line"/>
    </contour>
    <contour>
      <point x="1656.2" y="878.2" type="line"/>
      <point x="1887.0" y="1200.6" type="line"/>
      <point x="1887.0" y="878.2" type="line"/>
    </contour>
  </outline>
</glyph>
<glyph name="onehalf" format="1">
  <advance width="2329.6"/>
  <unicode hex="00BD"/>
  <outline>
    <contour>
      <point x="667.8" y="582.8" type="line"/>
      <point x="1195.0" y="582.8" type="line"/>
      <point x="1195.0" y="696.8" type="line"/>
      <point x="843.6" y="696.8" type="line"/>
      <point x="932.4" y="774.0"/>
      <point x="1022.2" y="848.4"/>
      <point x="1093.6" y="934.4" type="curve" smooth="yes"/>
      <point x="1145.6" y="997.0"/>
      <point x="1195.8" y="1069.4"/>
      <point x="1195.8" y="1170.8" type="curve" smooth="yes"/>
      <point x="1195.8" y="1204.6"/>
      <point x="1189.0" y="1234.6"/>
      <point x="1176.4" y="1261.4" type="curve" smooth="yes"/>
      <point x="1138.8" y="1339.6"/>
      <point x="1056.0" y="1389.8"/>
      <point x="942.0" y="1389.8" type="curve" smooth="yes"/>
      <point x="809.0" y="1389.8"/>
      <point x="717.0" y="1322.2"/>
      <point x="675.6" y="1225.8" type="curve"/>
      <point x="757.6" y="1150.6" type="line"/>
      <point x="789.4" y="1218.0"/>
      <point x="844.4" y="1276.8"/>
      <point x="936.0" y="1276.8" type="curve" smooth="yes"/>
      <point x="1012.4" y="1276.8"/>
      <point x="1071.4" y="1241.0"/>
      <point x="1071.4" y="1168.8" type="curve" smooth="yes"/>
      <point x="1071.4" y="1141.8"/>
      <point x="1061.6" y="1111.8"/>
      <point x="1041.4" y="1079.0" type="curve" smooth="yes"/>
      <point x="1021.0" y="1046.2"/>
      <point x="994.2" y="1010.6"/>
      <point x="958.4" y="971.0" type="curve" smooth="yes"/>
      <point x="872.6" y="876.2"/>
      <point x="770.2" y="783.8"/>
      <point x="667.8" y="690.2" type="curve"/>
    </contour>
    <contour>
      <point x="1803.8" y="582.8" type="line"/>
      <point x="2156.2" y="582.8" type="line"/>
      <point x="2156.2" y="695.0" type="line"/>
      <point x="2038.6" y="695.0" type="line"/>
      <point x="2038.6" y="1377.4" type="line"/>
      <point x="1937.2" y="1362.8" type="line"/>
      <point x="1887.0" y="1333.0"/>
      <point x="1839.4" y="1306.8"/>
      <point x="1774.8" y="1286.6" type="curve"/>
      <point x="1774.0" y="1161.0" type="line"/>
      <point x="1822.2" y="1179.4"/>
      <point x="1878.2" y="1204.6"/>
      <point x="1920.6" y="1226.8" type="curve"/>
      <point x="1920.6" y="1127.2" type="line" smooth="yes"/>
      <point x="1920.6" y="1077.0"/>
      <point x="1921.6" y="1029.8"/>
      <point x="1921.6" y="973.0" type="curve" smooth="yes"/>
      <point x="1921.6" y="697.8" type="line"/>
      <point x="1803.8" y="697.8" type="line"/>
    </contour>
    <contour>
      <point x="-285.8" y="0.0" type="line"/>
      <point x="-140.0" y="0.0" type="line"/>
      <point x="731.6" y="1386.0" type="line"/>
      <point x="587.8" y="1386.0" type="line"/>
    </contour>
  </outline>
</glyph>
<glyph name="multiply" format="1">
  <advance width="1236.2"/>
  <unicode hex="00D7"/>
  <outline>
    <contour>
      <point x="372.4" y="130.6" type="line"/>
      <point x="659.0" y="416.2" type="line"/>
      <point x="944.6" y="130.6" type="line"/>
      <point x="1045.0" y="231.0" type="line"/>
      <point x="758.4" y="516.6" type="line"/>
      <point x="1045.0" y="802.2" type="line"/>
      <point x="944.6" y="902.6" type="line"/>
      <point x="659.0" y="616.0" type="line"/>
      <point x="372.4" y="902.6" type="line"/>
      <point x="273.0" y="803.2" type="line"/>
      <point x="558.6" y="516.6" type="line"/>
      <point x="273.0" y="230.0" type="line"/>
    </contour>
  </outline>
</glyph>
<glyph name="Oslash" format="1">
  <advance width="1409.8"/>
  <unicode hex="00D8"/>
  <outline>
    <contour>
      <point x="489.2" y="-139.8" type="line"/>
      <point x="560.6" y="28.0" type="line"/>
      <point x="628.4" y="6.6"/>
      <point x="703.2" y="-5.4"/>
      <point x="786.6" y="-5.4" type="curve" smooth="yes"/>
      <point x="1245.0" y="-5.4"/>
      <point x="1481.0" y="343.2"/>
      <point x="1481.0" y="721.6" type="curve" smooth="yes"/>
      <point x="1481.0" y="975.2"/>
      <point x="1366.8" y="1238.8"/>
      <point x="1129.4" y="1368.2" type="curve"/>
      <point x="1204.2" y="1545.2" type="line"/>
      <point x="1083.6" y="1587.8" type="line"/>
      <point x="1012.0" y="1418.2" type="line"/>
      <point x="945.0" y="1438.6"/>
      <point x="869.6" y="1450.8"/>
      <point x="786.6" y="1450.8" type="curve" smooth="yes"/>
      <point x="329.0" y="1450.8"/>
      <point x="93.4" y="1102.4"/>
      <point x="93.4" y="721.6" type="curve" smooth="yes"/>
      <point x="93.4" y="468.8"/>
      <point x="207.4" y="205.2"/>
      <point x="446.0" y="75.8" type="curve"/>
      <point x="372.4" y="-97.4" type="line"/>
    </contour>
    <contour>
      <point x="508.2" y="225.0" type="line"/>
      <point x="373.0" y="313.4"/>
      <point x="271.0" y="476.4"/>
      <point x="271.0" y="723.0" type="curve" smooth="yes"/>
      <point x="271.0" y="1108.2"/>
      <point x="518.2" y="1303.2"/>
      <point x="786.6" y="1303.2" type="curve" smooth="yes"/>
      <point x="842.6" y="1303.2"/>
      <point x="897.6" y="1294.4"/>
      <point x="951.6" y="1276.4" type="curve"/>
    </contour>
    <contour>
      <point x="786.6" y="143.0" type="curve" smooth="yes"/>
      <point x="730.2" y="143.0"/>
      <point x="674.6" y="151.8"/>
      <point x="621.2" y="170.6" type="curve"/>
      <point x="1066.4" y="1219.8" type="line"/>
      <point x="1201.0" y="1131.4"/>
      <point x="1304.4" y="969.6"/>
      <point x="1304.4" y="723.0" type="curve" smooth="yes"/>
      <point x="1304.4" y="338.0"/>
      <point x="1056.4" y="143.0"/>
    </contour>
  </outline>
</glyph>
<glyph name="Thorn" format="1">
  <advance width="1080.2"/>
  <unicode hex="00DE"/>
  <outline>
    <contour>
      <point x="172.0" y="0.0" type="line"/>
      <point x="338.0" y="0.0" type="line"/>
      <point x="338.0" y="427.6" type="line"/>
      <point x="552.4" y="427.6" type="line" smooth="yes"/>
      <point x="713.6" y="427.6"/>
      <point x="857.4" y="463.2"/>
      <point x="958.6" y="527.0" type="curve" smooth="yes"/>
      <point x="1058.2" y="589.6"/>
      <point x="1134.4" y="689.0"/>
      <point x="1134.4" y="845.4" type="curve" smooth="yes"/>
      <point x="1134.4" y="1188.0"/>
      <point x="843.8" y="1266.4"/>
      <point x="501.2" y="1266.4" type="curve" smooth="yes"/>
      <point x="338.0" y="1266.4" type="line"/>
      <point x="338.0" y="1405.2" type="line"/>
      <point x="172.0" y="1405.2" type="line"/>
    </contour>
    <contour>
      <point x="338.0" y="571.4" type="line"/>
      <point x="338.0" y="1123.4" type="line"/>
      <point x="543.8" y="1123.4" type="line" smooth="yes"/>
      <point x="775.4" y="1123.4"/>
      <point x="956.8" y="1075.2"/>
      <point x="956.8" y="843.6" type="curve" smooth="yes"/>
      <point x="956.8" y="796.2"/>
      <point x="948.2" y="754.8"/>
      <point x="929.8" y="721.0" type="curve" smooth="yes"/>
      <point x="873.6" y="616.6"/>
      <point x="750.4" y="571.4"/>
      <point x="590.0" y="571.4" type="curve" smooth="yes"/>
    </contour>
  </outline>
</glyph>
<glyph name="germandbls" format="1">
  <advance width="1065.8"/>
  <unicode hex="00DF"/>
  <outline>
    <contour>
      <point x="744.0" y="-19.6" type="curve" smooth="yes"/>
      <point x="791.2" y="-19.6"/>
      <point x="836.6" y="-10.8"/>
      <point x="881.0" y="5.6" type="curve" smooth="yes"/>
      <point x="1006.6" y="52.8"/>
      <point x="1111.8" y="161.0"/>
      <point x="1111.8" y="331.8" type="curve" smooth="yes"/>
      <point x="1111.8" y="395.6"/>
      <point x="1099.0" y="450.4"/>
      <point x="1073.2" y="498.8" type="curve" smooth="yes"/>
      <point x="996.8" y="640.6"/>
      <point x="844.4" y="723.6"/>
      <point x="676.4" y="772.8" type="curve" smooth="yes"/>
      <point x="658.0" y="778.6"/>
      <point x="648.4" y="784.6"/>
      <point x="648.4" y="790.4" type="curve" smooth="yes"/>
      <point x="648.4" y="800.8"/>
      <point x="664.8" y="807.6"/>
      <point x="673.4" y="811.6" type="curve" smooth="yes"/>
      <point x="740.0" y="840.4"/>
      <point x="801.8" y="886.8"/>
      <point x="851.2" y="937.0" type="curve" smooth="yes"/>
      <point x="901.2" y="987.2"/>
      <point x="955.4" y="1057.8"/>
      <point x="955.4" y="1153.2" type="curve" smooth="yes"/>
      <point x="955.4" y="1195.6"/>
      <point x="946.6" y="1235.2"/>
      <point x="929.4" y="1272.8" type="curve" smooth="yes"/>
      <point x="872.6" y="1392.6"/>
      <point x="740.0" y="1461.0"/>
      <point x="562.6" y="1461.0" type="curve" smooth="yes"/>
      <point x="496.0" y="1461.0"/>
      <point x="437.0" y="1451.4"/>
      <point x="385.0" y="1431.2" type="curve" smooth="yes"/>
      <point x="237.4" y="1373.4"/>
      <point x="147.6" y="1239.8"/>
      <point x="147.6" y="1036.4" type="curve" smooth="yes"/>
      <point x="149.4" y="2.8" type="line"/>
      <point x="308.8" y="2.8" type="line"/>
      <point x="308.8" y="100.2"/>
      <point x="307.8" y="212.2"/>
      <point x="307.8" y="317.2" type="curve" smooth="yes"/>
      <point x="307.8" y="437.0"/>
      <point x="305.8" y="569.2"/>
      <point x="305.8" y="689.0" type="curve" smooth="yes"/>
      <point x="305.8" y="794.2"/>
      <point x="304.8" y="907.0"/>
      <point x="304.8" y="1004.4" type="curve" smooth="yes"/>
      <point x="304.8" y="1187.8"/>
      <point x="378.2" y="1336.6"/>
      <point x="561.6" y="1336.6" type="curve" smooth="yes"/>
      <point x="685.2" y="1336.6"/>
      <point x="773.8" y="1274.6"/>
      <point x="773.8" y="1152.2" type="curve" smooth="yes"/>
      <point x="773.8" y="1119.4"/>
      <point x="768.0" y="1088.6"/>
      <point x="755.4" y="1059.4" type="curve" smooth="yes"/>
      <point x="715.8" y="968.8"/>
      <point x="636.8" y="904.0"/>
      <point x="547.2" y="863.6" type="curve"/>
      <point x="531.8" y="732.4" type="line"/>
      <point x="628.2" y="677.2"/>
      <point x="729.6" y="621.4"/>
      <point x="807.8" y="553.0" type="curve" smooth="yes"/>
      <point x="871.6" y="496.8"/>
      <point x="931.2" y="424.4"/>
      <point x="931.2" y="313.4" type="curve" smooth="yes"/>
      <point x="931.2" y="192.8"/>
      <point x="858.8" y="108.0"/>
      <point x="740.0" y="108.0" type="curve" smooth="yes"/>
      <point x="634.8" y="108.0"/>
      <point x="555.8" y="169.8"/>
      <point x="496.8" y="237.2" type="curve"/>
      <point x="434.2" y="135.8" type="line"/>
      <point x="503.8" y="48.2"/>
      <point x="605.0" y="-19.6"/>
    </contour>
  </outline>
</glyph>
<glyph name="eth" format="1">
  <advance width="1009.0"/>
  <unicode hex="00F0"/>
  <outline>
    <contour>
      <point x="550.4" y="-19.6" type="curve" smooth="yes"/>
      <point x="628.6" y="-19.6"/>
      <point x="698.2" y="-5.2"/>
      <point x="760.0" y="24.0" type="curve" smooth="yes"/>
      <point x="960.8" y="119.4"/>
      <point x="1044.6" y="351.2"/>
      <point x="1044.6" y="651.2" type="curve" smooth="yes"/>
      <point x="1044.6" y="779.4"/>
      <point x="1027.2" y="891.6"/>
      <point x="998.2" y="993.0" type="curve"/>
      <point x="1138.2" y="993.0" type="line"/>
      <point x="1138.2" y="1125.2" type="line"/>
      <point x="948.0" y="1125.2" type="line"/>
      <point x="877.6" y="1271.8"/>
      <point x="773.4" y="1381.0"/>
      <point x="620.0" y="1440.8" type="curve"/>
      <point x="543.6" y="1359.8" type="line"/>
      <point x="649.8" y="1299.8"/>
      <point x="729.0" y="1229.4"/>
      <point x="786.8" y="1125.2" type="curve"/>
      <point x="588.0" y="1125.2" type="line"/>
      <point x="588.0" y="993.0" type="line"/>
      <point x="841.0" y="993.0" type="line"/>
      <point x="864.2" y="907.0"/>
      <point x="874.8" y="820.2"/>
      <point x="875.8" y="710.2" type="curve"/>
      <point x="875.8" y="700.4" type="line"/>
      <point x="806.2" y="811.6"/>
      <point x="689.4" y="868.4"/>
      <point x="515.8" y="868.4" type="curve" smooth="yes"/>
      <point x="448.2" y="868.4"/>
      <point x="387.2" y="857.8"/>
      <point x="333.2" y="836.6" type="curve" smooth="yes"/>
      <point x="181.6" y="776.8"/>
      <point x="74.6" y="641.6"/>
      <point x="74.6" y="433.2" type="curve" smooth="yes"/>
      <point x="74.6" y="369.4"/>
      <point x="85.4" y="309.8"/>
      <point x="107.4" y="254.6" type="curve" smooth="yes"/>
      <point x="172.2" y="92.6"/>
      <point x="324.4" y="-19.6"/>
    </contour>
    <contour>
      <point x="542.6" y="116.4" type="curve" smooth="yes"/>
      <point x="497.4" y="116.4"/>
      <point x="456.8" y="124.4"/>
      <point x="420.2" y="139.8" type="curve" smooth="yes"/>
      <point x="317.0" y="184.2"/>
      <point x="244.4" y="283.4"/>
      <point x="244.4" y="428.4" type="curve" smooth="yes"/>
      <point x="244.4" y="618.4"/>
      <point x="349.8" y="733.4"/>
      <point x="541.8" y="733.4" type="curve" smooth="yes"/>
      <point x="705.8" y="733.4"/>
      <point x="818.8" y="643.6"/>
      <point x="861.2" y="520.0" type="curve"/>
      <point x="861.2" y="496.8" type="line" smooth="yes"/>
      <point x="861.2" y="282.6"/>
      <point x="760.0" y="116.4"/>
    </contour>
  </outline>
</glyph>
<glyph name="divide" format="1">
  <advance width="1236.2"/>
  <unicode hex="00F7"/>
  <outline>
    <contour>
      <point x="574.0" y="17.8" type="line"/>
      <point x="783.6" y="17.8" type="line"/>
      <point x="783.6" y="220.4" type="line"/>
      <point x="574.0" y="220.4" type="line"/>
    </contour>
    <contour>
      <point x="167.8" y="465.8" type="line"/>
      <point x="1179.2" y="465.8" type="line"/>
      <point x="1179.2" y="599.8" type="line"/>
      <point x="167.8" y="599.8" type="line"/>
    </contour>
    <contour>
      <point x="574.0" y="840.2" type="line"/>
      <point x="783.6" y="840.2" type="line"/>
      <point x="783.6" y="1042.8" type="line"/>
      <point x="574.0" y="1042.8" type="line"/>
    </contour>
  </outline>
</glyph>
<glyph name="dotlessi" format="1">
  <advance width="391.2"/>
  <unicode hex="0131"/>
  <outline>
    <contour>
      <point x="404.2" y="-4.2" type="curve" smooth="yes"/>
      <point x="449.0" y="-4.2"/>
      <point x="517.4" y="10.8"/>
      <point x="564.6" y="29.6" type="curve"/>
      <point x="545.2" y="120.6" type="line"/>
      <point x="512.4" y="108.4"/>
      <point x="452.4" y="98.4"/>
      <point x="423.2" y="98.4" type="curve" smooth="yes"/>
      <point x="359.2" y="98.4"/>
      <point x="301.4" y="114.0"/>
      <point x="301.4" y="257.6" type="curve" smooth="yes"/>
      <point x="301.4" y="991.0" type="line"/>
      <point x="163.4" y="991.0" type="line"/>
      <point x="163.4" y="269.0" type="line" smooth="yes"/>
      <point x="163.4" y="57.6"/>
      <point x="283.8" y="-4.2"/>
    </contour>
  </outline>
</glyph>
<glyph name="kgreenlandic" format="1">
  <advance width="917.4"/>
  <unicode hex="0138"/>
  <outline>
    <contour>
      <point x="150.8" y="0.0" type="line"/>
      <point x="310.2" y="0.0" type="line"/>
      <point x="310.2" y="454.6" type="line"/>
      <point x="802.4" y="0.0" type="line"/>
      <point x="1013.8" y="0.0" type="line"/>
      <point x="829.4" y="168.0"/>
      <point x="649.8" y="326.4"/>
      <point x="465.4" y="494.2" type="curve"/>
      <point x="977.0" y="990.2" type="line"/>
      <point x="760.0" y="990.2" type="line"/>
      <point x="310.2" y="537.6" type="line"/>
      <point x="310.2" y="990.2" type="line"/>
      <point x="150.8" y="990.2" type="line"/>
    </contour>
  </outline>
</glyph>
<glyph name="Lslash" format="1">
  <advance width="949.6"/>
  <unicode hex="0141"/>
  <outline>
    <contour>
      <point x="193.2" y="0.0" type="line"/>
      <point x="1033.8" y="0.0" type="line"/>
      <point x="1033.8" y="142.8" type="line"/>
      <point x="359.2" y="142.8" type="line"/>
      <point x="359.2" y="687.2" type="line"/>
      <point x="634.2" y="859.0" type="line"/>
      <point x="634.2" y="991.2" type="line"/>
      <point x="359.2" y="819.4" type="line"/>
      <point x="359.2" y="1405.2" type="line"/>
      <point x="193.2" y="1405.2" type="line"/>
      <point x="193.2" y="716.2" type="line"/>
      <point x="12.6" y="604.2" type="line"/>
      <point x="12.6" y="472.0" type="line"/>
      <point x="193.2" y="584.0" type="line"/>
    </contour>
  </outline>
</glyph>
<glyph name="lslash" format="1">
  <advance width="426.6"/>
  <unicode hex="0142"/>
  <outline>
    <contour>
      <point x="162.2" y="0.0" type="line"/>
      <point x="321.4" y="0.0" type="line"/>
      <point x="321.4" y="760.6" type="line"/>
      <point x="486.4" y="859.0" type="line"/>
      <point x="486.4" y="991.2" type="line"/>
      <point x="321.4" y="892.8" type="line"/>
      <point x="321.4" y="1440.0" type="line"/>
      <point x="162.2" y="1440.0" type="line"/>
      <point x="162.2" y="797.2" type="line"/>
      <point x="0.0" y="700.8" type="line"/>
      <point x="0.0" y="568.6" type="line"/>
      <point x="162.2" y="665.0" type="line"/>
    </contour>
  </outline>
</glyph>
<glyph name="oe" format="1">
  <advance width="1670.0"/>
  <unicode hex="0153"/>
  <outline>
    <contour>
      <point x="578.0" y="-23.8" type="curve" smooth="yes"/>
      <point x="781.6" y="-23.8"/>
      <point x="916.6" y="58.2"/>
      <point x="975.6" y="205.0" type="curve"/>
      <point x="1033.4" y="63.0"/>
      <point x="1159.8" y="-23.8"/>
      <point x="1350.0" y="-23.8" type="curve" smooth="yes"/>
      <point x="1548.8" y="-23.8"/>
      <point x="1685.2" y="64.2"/>
      <point x="1761.4" y="202.2" type="curve"/>
      <point x="1676.4" y="285.0" type="line"/>
      <point x="1615.6" y="188.6"/>
      <point x="1508.2" y="108.4"/>
      <point x="1360.6" y="108.4" type="curve" smooth="yes"/>
      <point x="1312.2" y="108.4"/>
      <point x="1270.8" y="117.2"/>
      <point x="1234.2" y="133.6" type="curve" smooth="yes"/>
      <point x="1129.0" y="181.8"/>
      <point x="1067.2" y="288.8"/>
      <point x="1063.4" y="437.4" type="curve"/>
      <point x="1063.4" y="456.8" type="line"/>
      <point x="1792.2" y="458.8" type="line"/>
      <point x="1792.2" y="510.0" type="line" smooth="yes"/>
      <point x="1792.2" y="809.2"/>
      <point x="1655.2" y="1019.6"/>
      <point x="1357.0" y="1019.6" type="curve" smooth="yes"/>
      <point x="1163.0" y="1019.6"/>
      <point x="1046.0" y="932.6"/>
      <point x="980.4" y="795.6" type="curve"/>
      <point x="908.0" y="933.6"/>
      <point x="790.2" y="1019.6"/>
      <point x="587.6" y="1019.6" type="curve" smooth="yes"/>
      <point x="506.4" y="1019.6"/>
      <point x="435.2" y="1006.0"/>
      <point x="371.4" y="978.0" type="curve" smooth="yes"/>
      <point x="198.6" y="902.6"/>
      <point x="78.0" y="737.8"/>
      <point x="78.0" y="494.6" type="curve" smooth="yes"/>
      <point x="78.0" y="423.2"/>
      <point x="89.6" y="355.6"/>
      <point x="111.8" y="293.0" type="curve" smooth="yes"/>
      <point x="177.4" y="109.6"/>
      <point x="330.8" y="-23.8"/>
    </contour>
    <contour>
      <point x="587.6" y="108.4" type="curve" smooth="yes"/>
      <point x="528.6" y="108.4"/>
      <point x="477.6" y="119.0"/>
      <point x="435.2" y="139.2" type="curve" smooth="yes"/>
      <point x="315.4" y="196.2"/>
      <point x="244.8" y="318.8"/>
      <point x="244.8" y="492.6" type="curve" smooth="yes"/>
      <point x="244.8" y="545.8"/>
      <point x="252.8" y="596.0"/>
      <point x="267.2" y="643.2" type="curve" smooth="yes"/>
      <point x="307.8" y="777.4"/>
      <point x="407.2" y="888.4"/>
      <point x="580.0" y="888.4" type="curve" smooth="yes"/>
      <point x="805.8" y="888.4"/>
      <point x="901.2" y="722.4"/>
      <point x="901.2" y="496.4" type="curve" smooth="yes"/>
      <point x="901.2" y="280.2"/>
      <point x="804.6" y="108.4"/>
    </contour>
    <contour>
      <point x="1063.4" y="591.2" type="line"/>
      <point x="1066.2" y="629.8"/>
      <point x="1075.0" y="667.4"/>
      <point x="1089.6" y="703.0" type="curve" smooth="yes"/>
      <point x="1131.0" y="804.4"/>
      <point x="1221.8" y="888.4"/>
      <point x="1362.8" y="888.4" type="curve" smooth="yes"/>
      <point x="1540.2" y="888.4"/>
      <point x="1625.2" y="768.6"/>
      <point x="1625.2" y="591.2" type="curve"/>
    </contour>
  </outline>
</glyph>
<glyph name="florin" format="1">
  <advance width="1009.0"/>
  <unicode hex="0192"/>
  <outline>
    <contour>
      <point x="162.4" y="-281.4" type="curve" smooth="yes"/>
      <point x="221.2" y="-281.4"/>
      <point x="271.2" y="-270.0"/>
      <point x="309.8" y="-245.8" type="curve" smooth="yes"/>
      <point x="432.4" y="-171.4"/>
      <point x="473.2" y="-11.4"/>
      <point x="504.8" y="154.8" type="curve"/>
      <point x="627.4" y="814.0" type="line"/>
      <point x="833.0" y="814.0" type="line"/>
      <point x="842.8" y="949.2" type="line"/>
      <point x="649.6" y="949.2" type="line"/>
      <point x="684.4" y="1138.2" type="line" smooth="yes"/>
      <point x="701.6" y="1231.8"/>
      <point x="740.4" y="1288.0"/>
      <point x="851.2" y="1288.0" type="curve" smooth="yes"/>
      <point x="890.0" y="1288.0"/>
      <point x="924.8" y="1279.2"/>
      <point x="956.6" y="1266.6" type="curve"/>
      <point x="964.4" y="1406.6" type="line"/>
      <point x="922.0" y="1417.2"/>
      <point x="874.6" y="1425.0"/>
      <point x="826.2" y="1425.0" type="curve" smooth="yes"/>
      <point x="612.0" y="1425.0"/>
      <point x="531.8" y="1282.0"/>
      <point x="506.8" y="1094.8" type="curve"/>
      <point x="484.6" y="949.2" type="line"/>
      <point x="321.4" y="949.2" type="line"/>
      <point x="311.8" y="814.0" type="line"/>
      <point x="461.4" y="814.0" type="line"/>
      <point x="412.2" y="558.2"/>
      <point x="374.6" y="290.0"/>
      <point x="313.8" y="45.8" type="curve" smooth="yes"/>
      <point x="292.6" y="-42.0"/>
      <point x="256.8" y="-148.4"/>
      <point x="148.6" y="-148.4" type="curve" smooth="yes"/>
      <point x="124.4" y="-148.4"/>
      <point x="99.4" y="-143.4"/>
      <point x="73.4" y="-132.8" type="curve"/>
      <point x="61.8" y="-266.0" type="line"/>
      <point x="98.6" y="-276.6"/>
      <point x="132.4" y="-281.4"/>
    </contour>
  </outline>
</glyph>
<glyph name="uni0216" format="1">
  <advance width="1228.0"/>
  <unicode hex="0216"/>
  <outline>
    <contour>
      <point x="694.2" y="-18.6" type="curve" smooth="yes"/>
      <point x="1043.6" y="-18.6"/>
      <point x="1232.8" y="186.8"/>
      <point x="1234.8" y="534.4" type="curve"/>
      <point x="1234.8" y="1407.8" type="line"/>
      <point x="1069.6" y="1407.8" type="line"/>
      <point x="1069.6" y="522.8" type="line" smooth="yes"/>
      <point x="1069.6" y="271.8"/>
      <point x="935.4" y="121.2"/>
      <point x="692.2" y="121.2" type="curve" smooth="yes"/>
      <point x="429.6" y="121.2"/>
      <point x="295.6" y="253.4"/>
      <point x="295.6" y="529.6" type="curve" smooth="yes"/>
      <point x="295.6" y="1407.8" type="line"/>
      <point x="129.6" y="1407.8" type="line"/>
      <point x="129.6" y="524.6" type="line" smooth="yes"/>
      <point x="129.6" y="154.0"/>
      <point x="323.6" y="-18.6"/>
    </contour>
    <contour>
      <point x="408.4" y="1593.2" type="curve"/>
      <point x="492.6" y="1593.2" type="line"/>
      <point x="507.0" y="1678.2"/>
      <point x="577.4" y="1717.8"/>
      <point x="675.8" y="1717.8" type="curve" smooth="yes"/>
      <point x="774.2" y="1717.8"/>
      <point x="850.4" y="1674.2"/>
      <point x="869.8" y="1593.2" type="curve"/>
      <point x="952.8" y="1593.2" type="line"/>
      <point x="940.2" y="1741.8"/>
      <point x="842.8" y="1821.0"/>
      <point x="682.4" y="1821.0" type="curve" smooth="yes"/>
      <point x="517.4" y="1821.0"/>
      <point x="421.0" y="1747.6"/>
    </contour>
  </outline>
</glyph>
<glyph name="uni0217" format="1">
  <advance width="1015.8"/>
  <unicode hex="0217"/>
  <outline>
    <contour>
      <point x="489.0" y="-18.6" type="curve" smooth="yes"/>
      <point x="641.4" y="-18.6"/>
      <point x="753.8" y="41.0"/>
      <point x="828.2" y="160.8" type="curve"/>
      <point x="836.2" y="41.6"/>
      <point x="924.8" y="-36.2"/>
      <point x="1090.4" y="-0.2" type="curve"/>
      <point x="1101.6" y="132.0" type="line"/>
      <point x="1003.4" y="108.0"/>
      <point x="963.8" y="150.0"/>
      <point x="963.8" y="297.8" type="curve" smooth="yes"/>
      <point x="963.8" y="992.8" type="line"/>
      <point x="805.6" y="992.8" type="line"/>
      <point x="805.6" y="414.8" type="line" smooth="yes"/>
      <point x="805.6" y="225.6"/>
      <point x="672.4" y="114.4"/>
      <point x="513.2" y="114.4" type="curve" smooth="yes"/>
      <point x="396.2" y="114.4"/>
      <point x="279.4" y="165.6"/>
      <point x="284.2" y="354.8" type="curve" smooth="yes"/>
      <point x="290.2" y="576.8" type="line" smooth="yes"/>
      <point x="298.8" y="917.8"/>
      <point x="228.4" y="992.8"/>
      <point x="228.4" y="992.8" type="curve"/>
      <point x="69.2" y="967.8" type="line"/>
      <point x="69.2" y="967.8"/>
      <point x="139.6" y="879.2"/>
      <point x="130.8" y="564.2" type="curve" smooth="yes"/>
      <point x="125.0" y="354.8" type="line" smooth="yes"/>
      <point x="117.2" y="79.8"/>
      <point x="301.6" y="-18.6"/>
    </contour>
    <contour>
      <point x="288.2" y="1178.2" type="curve"/>
      <point x="372.2" y="1178.2" type="line"/>
      <point x="386.6" y="1263.2"/>
      <point x="457.0" y="1302.6"/>
      <point x="555.4" y="1302.6" type="curve" smooth="yes"/>
      <point x="653.8" y="1302.6"/>
      <point x="730.2" y="1259.4"/>
      <point x="749.6" y="1178.2" type="curve"/>
      <point x="832.6" y="1178.2" type="line"/>
      <point x="820.0" y="1326.8"/>
      <point x="722.4" y="1406.0"/>
      <point x="562.2" y="1406.0" type="curve" smooth="yes"/>
      <point x="397.0" y="1406.0"/>
      <point x="300.8" y="1332.8"/>
    </contour>
  </outline>
</glyph>
<glyph name="uni0237" format="1">
  <advance width="426.6"/>
  <unicode hex="0237"/>
  <outline>
    <contour>
      <point x="32.2" y="-363.6" type="curve" smooth="yes"/>
      <point x="76.6" y="-363.6"/>
      <point x="114.2" y="-357.0"/>
      <point x="147.0" y="-342.4" type="curve" smooth="yes"/>
      <point x="297.8" y="-276.8"/>
      <point x="340.2" y="-94.4"/>
      <point x="340.2" y="120.8" type="curve" smooth="yes"/>
      <point x="340.2" y="1040.6" type="line"/>
      <point x="181.0" y="1040.6" type="line"/>
      <point x="181.0" y="80.4" type="line" smooth="yes"/>
      <point x="181.0" y="-90.6"/>
      <point x="145.2" y="-222.6"/>
      <point x="-5.4" y="-222.6" type="curve" smooth="yes"/>
      <point x="-34.4" y="-222.6"/>
      <point x="-57.4" y="-218.0"/>
      <point x="-86.4" y="-213.0" type="curve"/>
      <point x="-85.4" y="-351.2" type="line"/>
      <point x="-48.8" y="-360.0"/>
      <point x="-10.2" y="-363.6"/>
    </contour>
  </outline>
</glyph>
<glyph name="circumflex" format="1">
  <advance width="592.6"/>
  <unicode hex="02C6"/>
  <outline>
    <contour>
      <point x="36.6" y="991.8" type="line"/>
      <point x="144.2" y="991.8" type="line"/>
      <point x="324.8" y="1214.2" type="line"/>
      <point x="506.6" y="991.8" type="line"/>
      <point x="619.8" y="991.8" type="line"/>
      <point x="403.6" y="1304.4" type="line"/>
      <point x="252.0" y="1304.4" type="line"/>
    </contour>
  </outline>
</glyph>
<glyph name="ogonek" format="1">
  <advance width="430.8"/>
  <unicode hex="02DB"/>
  <outline>
    <contour>
      <point x="251.0" y="-330.6" type="curve" smooth="yes"/>
      <point x="312.8" y="-330.6"/>
      <point x="377.4" y="-321.0"/>
      <point x="422.0" y="-302.6" type="curve"/>
      <point x="422.0" y="-195.4" type="line"/>
      <point x="377.4" y="-212.8"/>
      <point x="335.0" y="-225.4"/>
      <point x="273.4" y="-225.4" type="curve" smooth="yes"/>
      <point x="224.2" y="-225.4"/>
      <point x="176.8" y="-195.4"/>
      <point x="176.8" y="-146.2" type="curve" smooth="yes"/>
      <point x="176.8" y="-130.8"/>
      <point x="181.8" y="-115.4"/>
      <point x="191.4" y="-100.0" type="curve" smooth="yes"/>
      <point x="231.8" y="-37.2"/>
      <point x="306.2" y="5.4"/>
      <point x="372.8" y="45.8" type="curve"/>
      <point x="248.2" y="57.4" type="line"/>
      <point x="196.2" y="32.4"/>
      <point x="144.2" y="-1.4"/>
      <point x="105.4" y="-40.0" type="curve" smooth="yes"/>
      <point x="73.6" y="-71.8"/>
      <point x="40.8" y="-115.4"/>
      <point x="40.8" y="-171.2" type="curve" smooth="yes"/>
      <point x="40.8" y="-197.4"/>
      <point x="46.4" y="-220.6"/>
      <point x="57.2" y="-240.0" type="curve" smooth="yes"/>
      <point x="90.0" y="-298.8"/>
      <point x="160.4" y="-330.6"/>
    </contour>
  </outline>
</glyph>
<glyph name="hungarumlaut" format="1">
  <advance width="822.0"/>
  <unicode hex="02DD"/>
  <outline>
    <contour>
      <point x="137.2" y="995.4" type="line"/>
      <point x="251.2" y="995.4" type="line"/>
      <point x="516.6" y="1297.4" type="line"/>
      <point x="346.8" y="1297.4" type="line"/>
    </contour>
    <contour>
      <point x="395.0" y="995.4" type="line"/>
      <point x="510.8" y="995.4" type="line"/>
      <point x="777.2" y="1297.4" type="line"/>
      <point x="607.4" y="1297.4" type="line"/>
    </contour>
  </outline>
</glyph>
<glyph name="uni0307" format="1">
  <advance width="444.4"/>
  <unicode hex="0307"/>
  <outline>
    <contour>
      <point x="156.0" y="1056.2" type="line"/>
      <point x="310.2" y="1056.2" type="line"/>
      <point x="310.2" y="1213.6" type="line"/>
      <point x="156.0" y="1213.6" type="line"/>
    </contour>
  </outline>
</glyph>
<glyph name="dblgravecmb" format="1">
  <advance width="-340.8"/>
  <unicode hex="030F"/>
  <outline>
    <contour>
      <point x="-759.2" y="995.4" type="line"/>
      <point x="-643.4" y="995.4" type="line"/>
      <point x="-855.6" y="1297.4" type="line"/>
      <point x="-1025.6" y="1297.4" type="line"/>
    </contour>
    <contour>
      <point x="-499.4" y="995.4" type="line"/>
      <point x="-385.6" y="995.4" type="line"/>
      <point x="-595.0" y="1297.4" type="line"/>
      <point x="-765.0" y="1297.4" type="line"/>
    </contour>
  </outline>
</glyph>
<glyph name="uni0311" format="1">
  <advance width="533.4"/>
  <unicode hex="0311"/>
  <outline>
    <contour>
      <point x="27.0" y="1032.6" type="curve"/>
      <point x="111.0" y="1032.6" type="line"/>
      <point x="125.6" y="1117.4"/>
      <point x="196.0" y="1157.0"/>
      <point x="294.4" y="1157.0" type="curve" smooth="yes"/>
      <point x="392.8" y="1157.0"/>
      <point x="469.2" y="1113.6"/>
      <point x="488.6" y="1032.6" type="curve"/>
      <point x="571.4" y="1032.6" type="line"/>
      <point x="558.8" y="1181.2"/>
      <point x="461.4" y="1260.2"/>
      <point x="301.2" y="1260.2" type="curve" smooth="yes"/>
      <point x="136.0" y="1260.2"/>
      <point x="39.6" y="1187.0"/>
    </contour>
  </outline>
</glyph>
<glyph name="Delta" format="1">
  <advance width="1114.0"/>
  <unicode hex="0394"/>
  <outline>
    <contour>
      <point x="33.8" y="0.0" type="line"/>
      <point x="1214.2" y="0.0" type="line"/>
      <point x="1214.2" y="77.2" type="line"/>
      <point x="712.4" y="1379.2" type="line"/>
      <point x="536.8" y="1379.2" type="line"/>
      <point x="33.8" y="77.2" type="line"/>
    </contour>
    <contour>
      <point x="254.8" y="156.4" type="line"/>
      <point x="588.8" y="1072.2" type="line"/>
      <point x="619.8" y="1175.6" type="line"/>
      <point x="652.6" y="1072.2" type="line"/>
      <point x="992.2" y="156.4" type="line"/>
    </contour>
  </outline>
</glyph>
<glyph name="uni03A9" format="1">
  <advance width="1359.0"/>
  <unicode hex="03A9"/>
  <outline>
    <contour>
      <point x="89.6" y="0.0" type="line"/>
      <point x="611.6" y="0.0" type="line"/>
      <point x="608.8" y="116.8" type="line"/>
      <point x="558.6" y="149.6"/>
      <point x="513.0" y="188.2"/>
      <point x="471.6" y="231.6" type="curve" smooth="yes"/>
      <point x="361.4" y="348.4"/>
      <point x="272.0" y="512.4"/>
      <point x="272.0" y="732.6" type="curve" smooth="yes"/>
      <point x="272.0" y="810.8"/>
      <point x="283.4" y="882.2"/>
      <point x="307.6" y="947.8" type="curve" smooth="yes"/>
      <point x="374.2" y="1127.4"/>
      <point x="524.8" y="1263.4"/>
      <point x="765.2" y="1263.4" type="curve" smooth="yes"/>
      <point x="845.2" y="1263.4"/>
      <point x="915.6" y="1249.0"/>
      <point x="975.4" y="1220.0" type="curve" smooth="yes"/>
      <point x="1141.6" y="1139.8"/>
      <point x="1246.6" y="969.0"/>
      <point x="1246.6" y="727.8" type="curve" smooth="yes"/>
      <point x="1246.6" y="663.0"/>
      <point x="1238.0" y="600.4"/>
      <point x="1220.8" y="540.4" type="curve" smooth="yes"/>
      <point x="1167.6" y="354.2"/>
      <point x="1049.8" y="213.2"/>
      <point x="905.0" y="116.8" type="curve"/>
      <point x="908.8" y="0.0" type="line"/>
      <point x="1411.8" y="0.0" type="line"/>
      <point x="1420.4" y="133.0" type="line"/>
      <point x="1104.0" y="132.2" type="line"/>
      <point x="1188.0" y="198.8"/>
      <point x="1266.0" y="285.8"/>
      <point x="1322.0" y="384.2" type="curve" smooth="yes"/>
      <point x="1376.2" y="480.6"/>
      <point x="1418.6" y="599.4"/>
      <point x="1418.6" y="745.2" type="curve" smooth="yes"/>
      <point x="1418.6" y="946.0"/>
      <point x="1346.0" y="1103.2"/>
      <point x="1243.8" y="1210.4" type="curve" smooth="yes"/>
      <point x="1138.6" y="1320.4"/>
      <point x="979.4" y="1398.4"/>
      <point x="770.0" y="1398.4" type="curve" smooth="yes"/>
      <point x="564.4" y="1398.4"/>
      <point x="400.2" y="1326.2"/>
      <point x="290.2" y="1221.8" type="curve" smooth="yes"/>
      <point x="178.2" y="1116.6"/>
      <point x="99.2" y="959.4"/>
      <point x="99.2" y="749.0" type="curve" smooth="yes"/>
      <point x="99.2" y="682.4"/>
      <point x="106.8" y="617.6"/>
      <point x="122.2" y="557.8" type="curve" smooth="yes"/>
      <point x="168.6" y="371.6"/>
      <point x="273.8" y="231.6"/>
      <point x="409.0" y="132.2" type="curve"/>
      <point x="79.0" y="133.0" type="line"/>
    </contour>
  </outline>
</glyph>
<glyph name="uni03BC" format="1">
  <advance width="1031.8"/>
  <unicode hex="03BC"/>
  <outline>
    <contour>
      <point x="133.0" y="-171.2" type="line"/>
      <point x="292.4" y="-171.2" type="line"/>
      <point x="292.4" y="53.8" type="line"/>
      <point x="347.4" y="21.0"/>
      <point x="414.8" y="1.4"/>
      <point x="502.6" y="1.4" type="curve" smooth="yes"/>
      <point x="645.4" y="1.4"/>
      <point x="754.6" y="52.6"/>
      <point x="829.0" y="154.0" type="curve"/>
      <point x="831.8" y="23.8" type="line"/>
      <point x="996.0" y="23.8" type="line"/>
      <point x="989.2" y="104.8"/>
      <point x="988.2" y="174.4"/>
      <point x="988.2" y="261.2" type="curve" smooth="yes"/>
      <point x="988.2" y="1014.0" type="line"/>
      <point x="829.0" y="1014.0" type="line"/>
      <point x="829.0" y="444.6" type="line" smooth="yes"/>
      <point x="829.0" y="402.2"/>
      <point x="822.2" y="361.6"/>
      <point x="809.6" y="323.0" type="curve" smooth="yes"/>
      <point x="773.0" y="213.0"/>
      <point x="685.2" y="129.0"/>
      <point x="539.4" y="129.0" type="curve" smooth="yes"/>
      <point x="363.8" y="129.0"/>
      <point x="292.4" y="230.4"/>
      <point x="292.4" y="408.8" type="curve" smooth="yes"/>
      <point x="292.4" y="1014.0" type="line"/>
      <point x="133.0" y="1014.0" type="line"/>
    </contour>
  </outline>
</glyph>
<glyph name="pi" format="1">
  <advance width="1092.0"/>
  <unicode hex="03C0"/>
  <outline>
    <contour>
      <point x="1022.0" y="-6.8" type="curve" smooth="yes"/>
      <point x="1067.4" y="-6.8"/>
      <point x="1110.8" y="-1.2"/>
      <point x="1154.2" y="6.6" type="curve"/>
      <point x="1144.6" y="34.6"/>
      <point x="1141.6" y="63.6"/>
      <point x="1141.6" y="97.4" type="curve" smooth="yes"/>
      <point x="1141.6" y="107.0"/>
      <point x="1141.6" y="116.6"/>
      <point x="1142.6" y="126.4" type="curve" smooth="yes"/>
      <point x="1144.6" y="155.4" type="line"/>
      <point x="1116.6" y="146.6"/>
      <point x="1091.6" y="142.8"/>
      <point x="1067.4" y="142.8" type="curve" smooth="yes"/>
      <point x="986.2" y="142.8"/>
      <point x="973.0" y="199.6"/>
      <point x="973.0" y="278.8" type="curve" smooth="yes"/>
      <point x="973.0" y="876.4" type="line"/>
      <point x="1169.8" y="876.4" type="line"/>
      <point x="1169.8" y="1004.6" type="line"/>
      <point x="354.0" y="1004.6" type="line" smooth="yes"/>
      <point x="217.0" y="1004.6"/>
      <point x="90.6" y="1001.6"/>
      <point x="14.4" y="943.8" type="curve"/>
      <point x="30.8" y="817.4" type="line"/>
      <point x="105.2" y="857.0"/>
      <point x="185.4" y="873.4"/>
      <point x="298.2" y="876.4" type="curve"/>
      <point x="293.2" y="714.4"/>
      <point x="283.6" y="548.2"/>
      <point x="264.4" y="397.6" type="curve" smooth="yes"/>
      <point x="246.0" y="254.8"/>
      <point x="221.8" y="102.2"/>
      <point x="164.0" y="0.8" type="curve"/>
      <point x="327.2" y="0.8" type="line"/>
      <point x="338.6" y="21.2"/>
      <point x="349.4" y="50.2"/>
      <point x="359.0" y="85.8" type="curve" smooth="yes"/>
      <point x="421.6" y="324.2"/>
      <point x="440.0" y="598.4"/>
      <point x="461.2" y="876.4" type="curve"/>
      <point x="819.2" y="876.4" type="line"/>
      <point x="819.2" y="270.4" type="line" smooth="yes"/>
      <point x="819.2" y="101.4"/>
      <point x="855.0" y="-6.8"/>
    </contour>
  </outline>
</glyph>
<glyph name="endash" format="1">
  <advance width="920.0"/>
  <unicode hex="2013"/>
  <outline>
    <contour>
      <point x="-5.2" y="414.6" type="line"/>
      <point x="1047.0" y="414.6" type="line"/>
      <point x="1047.0" y="546.8" type="line"/>
      <point x="-5.2" y="546.8" type="line"/>
    </contour>
  </outline>
</glyph>
<glyph name="emdash" format="1">
  <advance width="1840.6"/>
  <unicode hex="2014"/>
  <outline>
    <contour>
      <point x="-2.6" y="414.6" type="line"/>
      <point x="2085.2" y="414.6" type="line"/>
      <point x="2085.2" y="546.8" type="line"/>
      <point x="-2.6" y="546.8" type="line"/>
    </contour>
  </outline>
</glyph>
<glyph name="quoteleft" format="1">
  <advance width="468.8"/>
  <unicode hex="2018"/>
  <outline>
    <contour>
      <point x="110.2" y="867.2" type="line"/>
      <point x="285.8" y="867.2" type="line"/>
      <point x="386.2" y="1291.8" type="line"/>
      <point x="258.8" y="1291.8" type="line"/>
    </contour>
  </outline>
</glyph>
<glyph name="quoteright" format="1">
  <advance width="468.8"/>
  <unicode hex="2019"/>
  <outline>
    <contour>
      <point x="118.6" y="867.2" type="line"/>
      <point x="246.0" y="867.2" type="line"/>
      <point x="394.8" y="1291.8" type="line"/>
      <point x="220.0" y="1291.8" type="line"/>
    </contour>
  </outline>
</glyph>
<glyph name="quotesinglbase" format="1">
  <advance width="468.8"/>
  <unicode hex="201A"/>
  <outline>
    <contour>
      <point x="106.0" y="-201.8" type="line"/>
      <point x="234.4" y="-201.8" type="line"/>
      <point x="383.0" y="222.0" type="line"/>
      <point x="208.2" y="222.0" type="line"/>
    </contour>
  </outline>
</glyph>
<glyph name="quotedblleft" format="1">
  <advance width="868.2"/>
  <unicode hex="201C"/>
  <outline>
    <contour>
      <point x="151.6" y="867.2" type="line"/>
      <point x="327.4" y="867.2" type="line"/>
      <point x="428.8" y="1291.8" type="line"/>
      <point x="300.4" y="1291.8" type="line"/>
    </contour>
    <contour>
      <point x="488.6" y="867.2" type="line"/>
      <point x="665.2" y="867.2" type="line"/>
      <point x="765.6" y="1291.8" type="line"/>
      <point x="637.2" y="1291.8" type="line"/>
    </contour>
  </outline>
</glyph>
<glyph name="quotedblbase" format="1">
  <advance width="868.2"/>
  <unicode hex="201E"/>
  <outline>
    <contour>
      <point x="150.8" y="-201.8" type="line"/>
      <point x="280.2" y="-201.8" type="line"/>
      <point x="428.0" y="222.0" type="line"/>
      <point x="252.2" y="222.0" type="line"/>
    </contour>
    <contour>
      <point x="497.4" y="-201.8" type="line"/>
      <point x="625.8" y="-201.8" type="line"/>
      <point x="774.4" y="222.0" type="line"/>
      <point x="597.8" y="222.0" type="line"/>
    </contour>
  </outline>
</glyph>
<glyph name="bullet" format="1">
  <advance width="839.0"/>
  <unicode hex="2022"/>
  <outline>
    <contour>
      <point x="457.2" y="326.4" type="curve" smooth="yes"/>
      <point x="554.6" y="326.4"/>
      <point x="635.0" y="366.0"/>
      <point x="688.0" y="416.2" type="curve" smooth="yes"/>
      <point x="740.0" y="464.6"/>
      <point x="785.4" y="537.8"/>
      <point x="785.4" y="631.4" type="curve" smooth="yes"/>
      <point x="785.4" y="672.0"/>
      <point x="776.6" y="709.4"/>
      <point x="759.4" y="746.2" type="curve" smooth="yes"/>
      <point x="712.2" y="847.6"/>
      <point x="608.8" y="929.8"/>
      <point x="462.2" y="929.8" type="curve" smooth="yes"/>
      <point x="418.6" y="929.8"/>
      <point x="376.2" y="921.8"/>
      <point x="336.6" y="905.6" type="curve" smooth="yes"/>
      <point x="231.4" y="863.2"/>
      <point x="133.0" y="767.4"/>
      <point x="133.0" y="624.6" type="curve" smooth="yes"/>
      <point x="133.0" y="584.0"/>
      <point x="141.8" y="545.6"/>
      <point x="158.2" y="509.8" type="curve" smooth="yes"/>
      <point x="205.4" y="407.6"/>
      <point x="309.8" y="326.4"/>
    </contour>
  </outline>
</glyph>
<glyph name="perthousand" format="1">
  <advance width="2022.8"/>
  <unicode hex="2030"/>
  <outline>
    <contour>
      <point x="387.0" y="717.4" type="curve" smooth="yes"/>
      <point x="438.2" y="717.4"/>
      <point x="484.6" y="725.2"/>
      <point x="525.2" y="742.4" type="curve" smooth="yes"/>
      <point x="638.0" y="789.8"/>
      <point x="714.2" y="898.8"/>
      <point x="714.2" y="1057.2" type="curve" smooth="yes"/>
      <point x="714.2" y="1269.4"/>
      <point x="601.4" y="1399.8"/>
      <point x="389.0" y="1399.8" type="curve" smooth="yes"/>
      <point x="337.0" y="1399.8"/>
      <point x="290.6" y="1391.0"/>
      <point x="250.0" y="1373.8" type="curve" smooth="yes"/>
      <point x="136.0" y="1326.4"/>
      <point x="61.8" y="1219.2"/>
      <point x="61.8" y="1060.0" type="curve" smooth="yes"/>
      <point x="61.8" y="850.6"/>
      <point x="176.6" y="717.4"/>
    </contour>
    <contour>
      <point x="1122.6" y="-23.0" type="curve" smooth="yes"/>
      <point x="1174.6" y="-23.0"/>
      <point x="1221.2" y="-14.2"/>
      <point x="1261.6" y="3.0" type="curve" smooth="yes"/>
      <point x="1375.6" y="51.4"/>
      <point x="1449.8" y="157.6"/>
      <point x="1449.8" y="316.8" type="curve" smooth="yes"/>
      <point x="1449.8" y="528.4"/>
      <point x="1337.8" y="660.4"/>
      <point x="1126.6" y="660.4" type="curve" smooth="yes"/>
      <point x="1073.4" y="660.4"/>
      <point x="1026.2" y="651.6"/>
      <point x="985.6" y="634.4" type="curve" smooth="yes"/>
      <point x="870.6" y="586.0"/>
      <point x="797.4" y="480.0"/>
      <point x="797.4" y="319.6" type="curve" smooth="yes"/>
      <point x="797.4" y="110.2"/>
      <point x="912.0" y="-23.0"/>
    </contour>
    <contour>
      <point x="1882.0" y="-23.0" type="curve" smooth="yes"/>
      <point x="1934.0" y="-23.0"/>
      <point x="1980.6" y="-14.2"/>
      <point x="2021.2" y="3.0" type="curve" smooth="yes"/>
      <point x="2134.0" y="50.4"/>
      <point x="2210.2" y="158.6"/>
      <point x="2210.2" y="316.8" type="curve" smooth="yes"/>
      <point x="2210.2" y="529.2"/>
      <point x="2099.2" y="660.4"/>
      <point x="1887.0" y="660.4" type="curve" smooth="yes"/>
      <point x="1833.8" y="660.4"/>
      <point x="1786.6" y="651.6"/>
      <point x="1746.0" y="634.4" type="curve" smooth="yes"/>
      <point x="1631.0" y="586.0"/>
      <point x="1557.8" y="480.0"/>
      <point x="1557.8" y="319.6" type="curve" smooth="yes"/>
      <point x="1557.8" y="111.4"/>
      <point x="1672.6" y="-23.0"/>
    </contour>
    <contour>
      <point x="157.0" y="1118.0" type="curve" smooth="yes"/>
      <point x="189.0" y="954.8"/>
      <point x="273.6" y="801.4"/>
      <point x="436.8" y="769.4" type="curve" smooth="yes"/>
      <point x="594.0" y="738.6"/>
      <point x="650.6" y="845.4"/>
      <point x="619.8" y="1001.4" type="curve" smooth="yes"/>
      <point x="588.4" y="1163.4"/>
      <point x="503.6" y="1316.8"/>
      <point x="342.8" y="1348.4" type="curve" smooth="yes"/>
      <point x="185.6" y="1379.0"/>
      <point x="126.2" y="1275.2"/>
    </contour>
    <contour>
      <point x="411.4" y="-17.2" type="line"/>
      <point x="192.0" y="-17.2" type="line"/>
      <point x="1098.2" y="1389.2" type="line"/>
      <point x="1312.0" y="1389.2" type="line"/>
    </contour>
    <contour>
      <point x="1125.6" y="86.2" type="curve" smooth="yes"/>
      <point x="995.2" y="86.2"/>
      <point x="937.2" y="188.4"/>
      <point x="937.2" y="319.6" type="curve" smooth="yes"/>
      <point x="937.2" y="448.0"/>
      <point x="996.2" y="550.4"/>
      <point x="1124.4" y="550.4" type="curve" smooth="yes"/>
      <point x="1254.8" y="550.4"/>
      <point x="1310.6" y="450.0"/>
      <point x="1310.6" y="318.8" type="curve" smooth="yes"/>
      <point x="1310.6" y="192.4"/>
      <point x="1252.0" y="86.2"/>
    </contour>
    <contour>
      <point x="1886.0" y="86.2" type="curve" smooth="yes"/>
      <point x="1755.6" y="86.2"/>
      <point x="1697.8" y="188.4"/>
      <point x="1697.8" y="319.6" type="curve" smooth="yes"/>
      <point x="1697.8" y="448.0"/>
      <point x="1756.8" y="550.4"/>
      <point x="1885.0" y="550.4" type="curve" smooth="yes"/>
      <point x="2014.4" y="550.4"/>
      <point x="2072.4" y="448.2"/>
      <point x="2072.4" y="318.8" type="curve" smooth="yes"/>
      <point x="2072.4" y="191.4"/>
      <point x="2013.2" y="86.2"/>
    </contour>
  </outline>
</glyph>
<glyph name="guilsinglright" format="1">
  <advance width="544.4"/>
  <unicode hex="203A"/>
  <outline>
    <contour>
      <point x="87.4" y="145.0" type="line"/>
      <point x="238.8" y="145.0" type="line"/>
      <point x="506.2" y="503.0" type="line"/>
      <point x="244.6" y="862.0" type="line"/>
      <point x="95.0" y="862.0" type="line"/>
      <point x="340.2" y="503.0" type="line"/>
    </contour>
  </outline>
</glyph>
<glyph name="uni2074" format="1">
  <advance width="760.6"/>
  <unicode hex="2074"/>
  <outline>
    <contour>
      <point x="346.2" y="521.2" type="line"/>
      <point x="462.0" y="521.2" type="line"/>
      <point x="462.0" y="702.6" type="line"/>
      <point x="578.8" y="702.6" type="line"/>
      <point x="569.2" y="806.0" type="line"/>
      <point x="463.8" y="806.0" type="line"/>
      <point x="463.8" y="1290.6" type="line"/>
      <point x="334.6" y="1290.6" type="line"/>
      <point x="-18.6" y="790.6" type="line"/>
      <point x="-18.6" y="702.6" type="line"/>
      <point x="346.2" y="702.6" type="line"/>
    </contour>
    <contour>
      <point x="115.4" y="806.0" type="line"/>
      <point x="346.2" y="1128.4" type="line"/>
      <point x="346.2" y="806.0" type="line"/>
    </contour>
  </outline>
</glyph>
<glyph name="Euro" format="1">
  <advance width="1009.0"/>
  <unicode hex="20AC"/>
  <outline>
    <contour>
      <point x="716.0" y="-17.8" type="curve" smooth="yes"/>
      <point x="850.2" y="-17.8"/>
      <point x="950.4" y="15.8"/>
      <point x="1036.4" y="74.8" type="curve"/>
      <point x="1037.4" y="246.6" type="line"/>
      <point x="951.4" y="180.0"/>
      <point x="859.8" y="123.2"/>
      <point x="731.4" y="123.2" type="curve" smooth="yes"/>
      <point x="493.2" y="123.2"/>
      <point x="398.6" y="289.2"/>
      <point x="369.4" y="500.6" type="curve"/>
      <point x="892.6" y="500.6" type="line"/>
      <point x="910.8" y="633.8" type="line"/>
      <point x="356.0" y="633.8" type="line"/>
      <point x="354.0" y="680.0" type="line" smooth="yes"/>
      <point x="353.2" y="697.2"/>
      <point x="352.2" y="718.4"/>
      <point x="353.2" y="736.8" type="curve"/>
      <point x="353.2" y="748.6" type="line" smooth="yes"/>
      <point x="353.2" y="752.6"/>
      <point x="354.0" y="756.2"/>
      <point x="355.0" y="759.2" type="curve"/>
      <point x="924.6" y="759.2" type="line"/>
      <point x="943.8" y="892.4" type="line"/>
      <point x="372.4" y="892.4" type="line"/>
      <point x="413.0" y="1079.4"/>
      <point x="513.4" y="1260.0"/>
      <point x="740.2" y="1260.0" type="curve" smooth="yes"/>
      <point x="873.4" y="1260.0"/>
      <point x="965.0" y="1191.4"/>
      <point x="1024.0" y="1103.6" type="curve"/>
      <point x="1058.8" y="1286.0" type="line"/>
      <point x="983.4" y="1357.6"/>
      <point x="886.8" y="1400.0"/>
      <point x="746.8" y="1400.0" type="curve" smooth="yes"/>
      <point x="670.6" y="1400.0"/>
      <point x="601.2" y="1387.4"/>
      <point x="540.4" y="1362.2" type="curve" smooth="yes"/>
      <point x="354.0" y="1286.0"/>
      <point x="242.2" y="1115.2"/>
      <point x="201.6" y="892.4" type="curve"/>
      <point x="84.8" y="892.4" type="line"/>
      <point x="63.6" y="759.2" type="line"/>
      <point x="183.2" y="759.2" type="line"/>
      <point x="182.2" y="737.0"/>
      <point x="181.4" y="717.6"/>
      <point x="181.4" y="696.4" type="curve" smooth="yes"/>
      <point x="181.4" y="672.4"/>
      <point x="182.2" y="651.0"/>
      <point x="184.0" y="633.8" type="curve"/>
      <point x="85.8" y="633.8" type="line"/>
      <point x="66.4" y="500.6" type="line"/>
      <point x="196.8" y="500.6" type="line"/>
      <point x="233.4" y="204.2"/>
      <point x="384.0" y="-17.8"/>
    </contour>
  </outline>
</glyph>
<glyph name="product" format="1">
  <advance width="1329.4"/>
  <unicode hex="220F"/>
  <outline>
    <contour>
      <point x="229.4" y="-278.8" type="line"/>
      <point x="398.4" y="-278.8" type="line"/>
      <point x="398.4" y="1272.2" type="line"/>
      <point x="1096.0" y="1272.2" type="line"/>
      <point x="1096.0" y="-278.8" type="line"/>
      <point x="1267.8" y="-278.8" type="line"/>
      <point x="1267.8" y="1272.2" type="line"/>
      <point x="1377.0" y="1272.2" type="line"/>
      <point x="1392.4" y="1412.2" type="line"/>
      <point x="93.2" y="1412.2" type="line"/>
      <point x="108.8" y="1272.2" type="line"/>
      <point x="229.4" y="1272.2" type="line"/>
    </contour>
  </outline>
</glyph>
<glyph name="summation" format="1">
  <advance width="1071.6"/>
  <unicode hex="2211"/>
  <outline>
    <contour>
      <point x="48.2" y="-278.8" type="line"/>
      <point x="1170.8" y="-278.8" type="line"/>
      <point x="1170.8" y="-136.0" type="line"/>
      <point x="277.2" y="-136.0" type="line"/>
      <point x="860.0" y="580.2" type="line"/>
      <point x="307.0" y="1275.0" type="line"/>
      <point x="1127.4" y="1275.0" type="line"/>
      <point x="1127.4" y="1412.2" type="line"/>
      <point x="69.6" y="1412.2" type="line"/>
      <point x="69.6" y="1320.2" type="line"/>
      <point x="666.2" y="571.4" type="line"/>
      <point x="48.2" y="-192.0" type="line"/>
    </contour>
  </outline>
</glyph>
<glyph name="minus" format="1">
  <advance width="1236.2"/>
  <unicode hex="2212"/>
  <outline>
    <contour>
      <point x="167.8" y="420.4" type="line"/>
      <point x="1180.2" y="420.4" type="line"/>
      <point x="1180.2" y="552.6" type="line"/>
      <point x="167.8" y="552.6" type="line"/>
    </contour>
  </outline>
</glyph>
<glyph name="radical" format="1">
  <advance width="1114.0"/>
  <unicode hex="221A"/>
  <outline>
    <contour>
      <point x="579.6" y="-129.8" type="line"/>
      <point x="709.8" y="-129.8" type="line"/>
      <point x="1159.6" y="1558.4" type="line"/>
      <point x="1034.0" y="1558.4" type="line"/>
      <point x="674.2" y="227.4" type="line"/>
      <point x="635.4" y="57.4" type="line"/>
      <point x="579.6" y="224.4" type="line"/>
      <point x="358.4" y="814.2" type="line"/>
      <point x="73.8" y="765.0" type="line"/>
      <point x="93.2" y="656.8" type="line"/>
      <point x="259.2" y="683.8" type="line"/>
    </contour>
  </outline>
</glyph>
<glyph name="infinity" format="1">
  <advance width="1461.6"/>
  <unicode hex="221E"/>
  <outline>
    <contour>
      <point x="432.6" y="200.2" type="curve" smooth="yes"/>
      <point x="471.4" y="200.2"/>
      <point x="508.0" y="205.8"/>
      <point x="542.6" y="217.4" type="curve" smooth="yes"/>
      <point x="662.4" y="259.0"/>
      <point x="746.4" y="349.8"/>
      <point x="818.8" y="443.4" type="curve"/>
      <point x="882.6" y="362.4"/>
      <point x="945.2" y="301.6"/>
      <point x="1006.0" y="261.0" type="curve" smooth="yes"/>
      <point x="1066.8" y="220.4"/>
      <point x="1133.4" y="200.2"/>
      <point x="1204.8" y="200.2" type="curve" smooth="yes"/>
      <point x="1251.0" y="200.2"/>
      <point x="1295.6" y="208.8"/>
      <point x="1338.0" y="225.2" type="curve" smooth="yes"/>
      <point x="1457.6" y="272.4"/>
      <point x="1553.2" y="382.4"/>
      <point x="1553.2" y="546.4" type="curve" smooth="yes"/>
      <point x="1553.2" y="595.8"/>
      <point x="1545.4" y="640.2"/>
      <point x="1529.0" y="681.8" type="curve" smooth="yes"/>
      <point x="1481.8" y="801.4"/>
      <point x="1372.6" y="883.4"/>
      <point x="1206.6" y="883.4" type="curve" smooth="yes"/>
      <point x="1165.2" y="883.4"/>
      <point x="1127.6" y="877.4"/>
      <point x="1092.8" y="866.0" type="curve" smooth="yes"/>
      <point x="972.2" y="825.4"/>
      <point x="892.0" y="733.8"/>
      <point x="820.8" y="640.2" type="curve"/>
      <point x="792.8" y="676.8"/>
      <point x="763.8" y="710.6"/>
      <point x="733.8" y="740.6" type="curve" smooth="yes"/>
      <point x="660.4" y="815.0"/>
      <point x="567.8" y="883.4"/>
      <point x="427.8" y="883.4" type="curve" smooth="yes"/>
      <point x="326.4" y="883.4"/>
      <point x="241.4" y="841.0"/>
      <point x="185.6" y="789.8" type="curve" smooth="yes"/>
      <point x="129.6" y="739.8"/>
      <point x="81.4" y="662.4"/>
      <point x="81.4" y="563.0" type="curve" smooth="yes"/>
      <point x="81.4" y="513.6"/>
      <point x="89.0" y="466.6"/>
      <point x="106.4" y="423.2" type="curve" smooth="yes"/>
      <point x="154.8" y="299.6"/>
      <point x="263.8" y="200.2"/>
    </contour>
    <contour>
      <point x="435.6" y="314.8" type="curve" smooth="yes"/>
      <point x="401.0" y="314.8"/>
      <point x="369.8" y="321.6"/>
      <point x="341.8" y="334.2" type="curve" smooth="yes"/>
      <point x="268.4" y="368.0"/>
      <point x="206.8" y="440.6"/>
      <point x="206.8" y="543.8" type="curve" smooth="yes"/>
      <point x="206.8" y="574.6"/>
      <point x="212.6" y="603.4"/>
      <point x="222.2" y="631.4" type="curve" smooth="yes"/>
      <point x="251.2" y="711.6"/>
      <point x="318.0" y="772.4"/>
      <point x="426.0" y="772.4" type="curve" smooth="yes"/>
      <point x="459.8" y="772.4"/>
      <point x="491.6" y="765.6"/>
      <point x="521.6" y="754.0" type="curve" smooth="yes"/>
      <point x="623.8" y="713.4"/>
      <point x="692.2" y="627.6"/>
      <point x="752.0" y="540.8" type="curve"/>
      <point x="709.6" y="483.0"/>
      <point x="661.6" y="424.0"/>
      <point x="606.4" y="381.6" type="curve" smooth="yes"/>
      <point x="562.0" y="346.8"/>
      <point x="508.0" y="314.8"/>
    </contour>
    <contour>
      <point x="1207.8" y="314.8" type="curve" smooth="yes"/>
      <point x="1137.4" y="314.8"/>
      <point x="1090.0" y="339.0"/>
      <point x="1045.6" y="372.8" type="curve" smooth="yes"/>
      <point x="984.0" y="419.2"/>
      <point x="936.6" y="477.2"/>
      <point x="885.4" y="543.8" type="curve"/>
      <point x="925.0" y="601.6"/>
      <point x="972.2" y="659.6"/>
      <point x="1026.2" y="702.0" type="curve" smooth="yes"/>
      <point x="1071.6" y="737.6"/>
      <point x="1129.6" y="772.4"/>
      <point x="1203.0" y="772.4" type="curve" smooth="yes"/>
      <point x="1234.8" y="772.4"/>
      <point x="1262.8" y="766.6"/>
      <point x="1289.8" y="756.0" type="curve" smooth="yes"/>
      <point x="1359.4" y="727.0"/>
      <point x="1419.0" y="664.4"/>
      <point x="1419.0" y="568.8" type="curve" smooth="yes"/>
      <point x="1419.0" y="422.2"/>
      <point x="1353.6" y="314.8"/>
    </contour>
  </outline>
</glyph>
<glyph name="integral" format="1">
  <advance width="595.2"/>
  <unicode hex="222B"/>
  <outline>
    <contour>
      <point x="236.6" y="-338.2" type="curve" smooth="yes"/>
      <point x="451.8" y="-338.2"/>
      <point x="523.2" y="-189.6"/>
      <point x="523.2" y="24.6" type="curve" smooth="yes"/>
      <point x="523.2" y="1281.2" type="line" smooth="yes"/>
      <point x="523.2" y="1412.4"/>
      <point x="549.2" y="1490.8"/>
      <point x="680.4" y="1490.8" type="curve" smooth="yes"/>
      <point x="716.2" y="1490.8"/>
      <point x="761.6" y="1485.8"/>
      <point x="786.6" y="1476.2" type="curve"/>
      <point x="784.8" y="1600.8" type="line"/>
      <point x="742.4" y="1610.4"/>
      <point x="706.8" y="1621.2"/>
      <point x="653.6" y="1621.2" type="curve" smooth="yes"/>
      <point x="438.2" y="1621.2"/>
      <point x="365.0" y="1472.4"/>
      <point x="365.0" y="1258.2" type="curve" smooth="yes"/>
      <point x="365.0" y="1.4" type="line" smooth="yes"/>
      <point x="365.0" y="-129.8"/>
      <point x="340.8" y="-208.0"/>
      <point x="209.6" y="-208.0" type="curve" smooth="yes"/>
      <point x="174.0" y="-208.0"/>
      <point x="128.6" y="-203.2"/>
      <point x="103.4" y="-193.6" type="curve"/>
      <point x="105.2" y="-318.0" type="line"/>
      <point x="151.6" y="-330.6"/>
      <point x="179.6" y="-338.2"/>
    </contour>
  </outline>
</glyph>
<glyph name="notequal" format="1">
  <advance width="1145.4"/>
  <unicode hex="2260"/>
  <outline>
    <contour>
      <point x="422.4" y="39.0" type="line"/>
      <point x="557.2" y="308.4" type="line"/>
      <point x="1122.0" y="308.4" type="line"/>
      <point x="1113.4" y="424.0" type="line"/>
      <point x="614.4" y="424.0" type="line"/>
      <point x="757.2" y="697.2" type="line"/>
      <point x="1122.0" y="697.2" type="line"/>
      <point x="1112.4" y="814.0" type="line"/>
      <point x="813.2" y="814.0" type="line"/>
      <point x="935.8" y="1061.2" type="line"/>
      <point x="815.0" y="1078.4" type="line"/>
      <point x="683.8" y="814.0" type="line"/>
      <point x="135.6" y="814.0" type="line"/>
      <point x="145.4" y="697.2" type="line"/>
      <point x="628.8" y="697.2" type="line"/>
      <point x="486.8" y="424.0" type="line"/>
      <point x="136.6" y="424.0" type="line"/>
      <point x="145.4" y="308.4" type="line"/>
      <point x="428.2" y="308.4" type="line"/>
      <point x="304.4" y="56.4" type="line"/>
    </contour>
  </outline>
</glyph>
<glyph name="lessequal" format="1">
  <advance width="1145.4"/>
  <unicode hex="2264"/>
  <outline>
    <contour>
      <point x="1087.2" y="207.4" type="line"/>
      <point x="1087.2" y="343.6" type="line"/>
      <point x="340.2" y="684.4" type="line"/>
      <point x="1087.2" y="1040.4" type="line"/>
      <point x="1087.2" y="1175.4" type="line"/>
      <point x="171.2" y="720.0" type="line"/>
      <point x="171.2" y="641.8" type="line"/>
    </contour>
    <contour>
      <point x="136.4" y="7.8" type="line"/>
      <point x="1115.2" y="7.8" type="line"/>
      <point x="1115.2" y="125.4" type="line"/>
      <point x="136.4" y="125.4" type="line"/>
    </contour>
  </outline>
</glyph>
<glyph name="greaterequal" format="1">
  <advance width="1144.6"/>
  <unicode hex="2265"/>
  <outline>
    <contour>
      <point x="166.4" y="209.4" type="line"/>
      <point x="1093.0" y="643.8" type="line"/>
      <point x="1093.0" y="721.0" type="line"/>
      <point x="170.4" y="1177.4" type="line"/>
      <point x="170.4" y="1042.2" type="line"/>
      <point x="921.2" y="681.4" type="line"/>
      <point x="166.4" y="345.4" type="line"/>
    </contour>
    <contour>
      <point x="136.4" y="7.8" type="line"/>
      <point x="1111.2" y="7.8" type="line"/>
      <point x="1111.2" y="125.4" type="line"/>
      <point x="136.4" y="125.4" type="line"/>
    </contour>
  </outline>
</glyph>
<glyph name="uniF6C3" format="1">
  <advance width="507.8"/>
  <unicode hex="F6C3"/>
  <outline>
    <contour>
      <point x="93.2" y="-511.2" type="line"/>
      <point x="219.8" y="-511.2" type="line"/>
      <point x="377.2" y="-64.2" type="line"/>
      <point x="196.6" y="-64.2" type="line"/>
    </contour>
  </outline>
</glyph>
<glyph name="J.alt" format="1">
  <advance width="796.2"/>
  <outline>
    <contour>
      <point x="301.6" y="-19.6" type="curve" smooth="yes"/>
      <point x="366.2" y="-19.6"/>
      <point x="424.2" y="-8.8"/>
      <point x="476.2" y="13.2" type="curve" smooth="yes"/>
      <point x="639.4" y="81.8"/>
      <point x="720.4" y="249.8"/>
      <point x="720.4" y="484.2" type="curve" smooth="yes"/>
      <point x="720.4" y="1408.0" type="line"/>
      <point x="554.4" y="1408.0" type="line"/>
      <point x="554.4" y="473.8" type="line" smooth="yes"/>
      <point x="554.4" y="288.4"/>
      <point x="490.6" y="123.4"/>
      <point x="306.2" y="123.4" type="curve" smooth="yes"/>
      <point x="220.4" y="123.4"/>
      <point x="161.6" y="153.2"/>
      <point x="109.4" y="192.8" type="curve"/>
      <point x="60.2" y="80.8" type="line"/>
      <point x="118.0" y="23.0"/>
      <point x="192.4" y="-19.6"/>
    </contour>
  </outline>
</glyph>
<glyph name="a.alt" format="1">
  <advance width="1033.4"/>
  <outline>
    <contour>
      <point x="523.4" y="-19.6" type="curve" smooth="yes"/>
      <point x="641.2" y="-19.6"/>
      <point x="792.6" y="15.4"/>
      <point x="882.4" y="163.0" type="curve"/>
      <point x="908.4" y="47.2"/>
      <point x="1022.4" y="-1.2"/>
      <point x="1106.4" y="-1.2" type="curve"/>
      <point x="1139.2" y="136.8" type="line"/>
      <point x="1089.0" y="136.8"/>
      <point x="1018.6" y="167.0"/>
      <point x="1018.6" y="278.8" type="curve" smooth="yes"/>
      <point x="1018.6" y="503.6" type="line" smooth="yes"/>
      <point x="1018.6" y="898.2"/>
      <point x="823.8" y="1018.2"/>
      <point x="582.4" y="1018.2" type="curve" smooth="yes"/>
      <point x="263.8" y="1018.2"/>
      <point x="74.6" y="817.2"/>
      <point x="74.6" y="479.4" type="curve" smooth="yes"/>
      <point x="74.6" y="188.0"/>
      <point x="261.0" y="-19.6"/>
    </contour>
    <contour>
      <point x="541.8" y="115.6" type="curve" smooth="yes"/>
      <point x="363.2" y="115.6"/>
      <point x="235.8" y="271.0"/>
      <point x="235.8" y="489.2" type="curve" smooth="yes"/>
      <point x="235.8" y="737.0"/>
      <point x="366.0" y="883.8"/>
      <point x="585.0" y="883.8" type="curve" smooth="yes"/>
      <point x="759.8" y="883.8"/>
      <point x="860.4" y="788.2"/>
      <point x="860.4" y="508.4" type="curve" smooth="yes"/>
      <point x="860.4" y="265.2"/>
      <point x="788.8" y="115.6"/>
    </contour>
  </outline>
</glyph>
<glyph name="e.alt" format="1">
  <advance width="909.6"/>
  <outline>
    <contour>
      <point x="557.6" y="-16.0" type="curve" smooth="yes"/>
      <point x="720.6" y="-16.0"/>
      <point x="852.8" y="46.6"/>
      <point x="966.6" y="166.4" type="curve"/>
      <point x="886.6" y="268.6" type="line"/>
      <point x="815.2" y="182.8"/>
      <point x="698.4" y="121.0"/>
      <point x="564.2" y="121.0" type="curve" smooth="yes"/>
      <point x="434.8" y="121.0"/>
      <point x="311.4" y="187.6"/>
      <point x="267.8" y="360.2" type="curve"/>
      <point x="621.2" y="412.4"/>
      <point x="902.0" y="490.6"/>
      <point x="902.0" y="727.2" type="curve" smooth="yes"/>
      <point x="902.0" y="888.4"/>
      <point x="768.6" y="1021.4"/>
      <point x="560.4" y="1021.4" type="curve" smooth="yes"/>
      <point x="248.4" y="1021.4"/>
      <point x="79.6" y="779.2"/>
      <point x="79.6" y="500.2" type="curve" smooth="yes"/>
      <point x="79.6" y="172.2"/>
      <point x="302.8" y="-16.0"/>
    </contour>
    <contour>
      <point x="256.4" y="475.2" type="curve"/>
      <point x="254.4" y="491.6"/>
      <point x="253.4" y="507.0"/>
      <point x="253.4" y="522.4" type="curve" smooth="yes"/>
      <point x="253.4" y="711.6"/>
      <point x="367.2" y="883.4"/>
      <point x="561.2" y="883.4" type="curve" smooth="yes"/>
      <point x="678.0" y="883.4"/>
      <point x="744.6" y="818.8"/>
      <point x="744.6" y="731.0" type="curve" smooth="yes"/>
      <point x="744.6" y="575.6"/>
      <point x="532.4" y="517.6"/>
    </contour>
  </outline>
</glyph>
<glyph name="k.alt" format="1">
  <advance width="917.4"/>
  <outline>
    <contour>
      <point x="150.8" y="0.0" type="line"/>
      <point x="271.4" y="0.0" type="line"/>
      <point x="368.0" y="144.0"/>
      <point x="465.8" y="287.0"/>
      <point x="562.2" y="429.8" type="curve"/>
      <point x="833.2" y="0.0" type="line"/>
      <point x="1008.0" y="0.0" type="line"/>
      <point x="649.8" y="560.0" type="line"/>
      <point x="747.4" y="703.8"/>
      <point x="844.8" y="846.4"/>
      <point x="942.4" y="990.2" type="curve"/>
      <point x="769.6" y="990.2" type="line"/>
      <point x="310.2" y="297.2" type="line"/>
      <point x="310.2" y="1473.0" type="line"/>
      <point x="150.8" y="1473.0" type="line"/>
    </contour>
  </outline>
</glyph>
<glyph name="n.alt" format="1">
  <advance width="1070.8"/>
  <outline>
    <contour>
      <point x="1039.6" y="-20.4" type="curve"/>
      <point x="1074.6" y="101.2" type="line"/>
      <point x="1002.2" y="115.6"/>
      <point x="991.6" y="139.6"/>
      <point x="991.6" y="248.8" type="curve" smooth="yes"/>
      <point x="991.6" y="263.4" type="line"/>
      <point x="993.4" y="550.0" type="line"/>
      <point x="993.4" y="559.6" type="line" smooth="yes"/>
      <point x="993.4" y="839.4"/>
      <point x="908.4" y="1017.4"/>
      <point x="625.6" y="1017.4" type="curve" smooth="yes"/>
      <point x="463.6" y="1017.4"/>
      <point x="383.4" y="956.6"/>
      <point x="313.0" y="856.2" type="curve"/>
      <point x="291.8" y="993.2" type="line"/>
      <point x="130.6" y="993.2" type="line"/>
      <point x="136.2" y="945.8"/>
      <point x="155.6" y="759.4"/>
      <point x="155.6" y="677.4" type="curve" smooth="yes"/>
      <point x="155.6" y="2.8" type="line"/>
      <point x="315.0" y="2.8" type="line"/>
      <point x="315.0" y="632.0" type="line" smooth="yes"/>
      <point x="315.0" y="774.0"/>
      <point x="450.0" y="882.0"/>
      <point x="598.6" y="882.0" type="curve" smooth="yes"/>
      <point x="802.2" y="882.0"/>
      <point x="834.2" y="765.2"/>
      <point x="834.2" y="567.4" type="curve" smooth="yes"/>
      <point x="834.2" y="555.0" type="line"/>
      <point x="832.2" y="258.4" type="line"/>
      <point x="832.2" y="242.2" type="line" smooth="yes"/>
      <point x="832.2" y="62.6"/>
      <point x="858.2" y="0.8"/>
    </contour>
  </outline>
</glyph>
<glyph name="u.alt" format="1">
  <advance width="1030.2"/>
  <outline>
    <contour>
      <point x="497.6" y="-20.4" type="curve" smooth="yes"/>
      <point x="650.0" y="-20.4"/>
      <point x="764.6" y="39.4"/>
      <point x="843.8" y="152.4" type="curve"/>
      <point x="869.8" y="45.2"/>
      <point x="964.6" y="-1.0"/>
      <point x="1058.2" y="-1.0" type="curve"/>
      <point x="1092.0" y="136.8" type="line"/>
      <point x="1041.8" y="136.8"/>
      <point x="972.4" y="166.8"/>
      <point x="972.4" y="278.8" type="curve" smooth="yes"/>
      <point x="972.4" y="993.2" type="line"/>
      <point x="813.0" y="993.2" type="line"/>
      <point x="813.0" y="406.4" type="line" smooth="yes"/>
      <point x="813.0" y="217.2"/>
      <point x="660.6" y="116.6"/>
      <point x="521.6" y="116.6" type="curve" smooth="yes"/>
      <point x="404.8" y="116.6"/>
      <point x="298.4" y="179.4"/>
      <point x="298.4" y="368.6" type="curve" smooth="yes"/>
      <point x="298.4" y="577.0" type="line" smooth="yes"/>
      <point x="298.4" y="881.8"/>
      <point x="261.0" y="993.2"/>
      <point x="261.0" y="993.2" type="curve"/>
      <point x="101.6" y="993.2" type="line"/>
      <point x="101.6" y="993.2"/>
      <point x="139.4" y="843.4"/>
      <point x="139.4" y="564.6" type="curve" smooth="yes"/>
      <point x="139.4" y="368.6" type="line" smooth="yes"/>
      <point x="139.4" y="93.6"/>
      <point x="310.2" y="-20.4"/>
    </contour>
  </outline>
</glyph>
